<?xml version="1.0" standalone="no"?>
<!DOCTYPE svg PUBLIC "-//W3C//DTD SVG 1.1//EN" "http://www.w3.org/Graphics/SVG/1.1/DTD/svg11.dtd" >
<svg xmlns="http://www.w3.org/2000/svg">
<metadata>Generated by IcoMoon</metadata>
<defs>
<font id="icomoon" horiz-adv-x="1024">
<font-face units-per-em="1024" ascent="960" descent="-64" />
<missing-glyph horiz-adv-x="1024" />
<glyph unicode="&#x20;" horiz-adv-x="512" d="" />
<glyph unicode="&#xe900;" glyph-name="phone" d="M1023.511 152.060c2.17-16.624-2.896-31.077-15.177-43.361l-144.177-143.088c-6.504-7.227-14.994-13.375-25.473-18.429-10.479-5.061-20.776-8.313-30.89-9.756-0.723 0-2.896-0.186-6.511-0.547-3.608-0.36-8.306-0.544-14.087-0.544-13.735 0-35.959 2.349-66.674 7.048s-68.293 16.264-112.734 34.689c-44.453 18.429-94.859 46.075-151.227 82.929-56.368 36.852-116.353 87.444-179.95 151.765-50.588 49.866-92.504 97.563-125.748 143.091-33.244 45.531-59.983 87.628-80.219 126.292-20.237 38.664-35.414 73.714-45.531 105.152s-16.983 58.538-20.597 81.303-5.059 40.651-4.336 53.66c0.723 13.008 1.084 20.235 1.084 21.681 1.445 10.118 4.697 20.416 9.756 30.895s11.202 18.971 18.429 25.475l144.177 144.177c10.118 10.118 21.681 15.177 34.689 15.177 9.395 0 17.706-2.71 24.933-8.13s13.37-12.105 18.429-20.055l115.992-220.059c6.504-11.563 8.311-24.21 5.42-37.941s-9.034-25.294-18.429-34.689l-53.118-53.118c-1.445-1.445-2.71-3.794-3.794-7.046s-1.626-5.962-1.626-8.13c2.891-15.177 9.395-32.521 19.513-52.034 8.672-17.345 22.042-38.483 40.109-63.416s43.723-53.658 76.967-86.179c32.521-33.247 61.429-59.080 86.723-77.512 25.289-18.422 46.435-31.977 63.418-40.65s29.992-13.912 39.024-15.713l13.547-2.712c1.445 0 3.799 0.544 7.048 1.626 3.252 1.086 5.601 2.349 7.048 3.796l61.788 62.874c13.016 11.561 28.185 17.343 45.531 17.343 12.289 0 22.040-2.166 29.267-6.504h1.082l209.217-123.58c15.182-9.402 24.214-21.323 27.106-35.777z" />
<glyph unicode="&#xe901;" glyph-name="clock" d="M512 960c-281.6 0-512-230.4-512-512s230.4-512 512-512 512 230.4 512 512-230.4 512-512 512zM512 38.4c-225.28 0-409.6 184.32-409.6 409.6s184.32 409.6 409.6 409.6 409.6-184.32 409.6-409.6-184.32-409.6-409.6-409.6zM537.6 704h-76.8v-307.2l266.24-163.84 40.96 66.56-230.4 138.24z" />
<glyph unicode="&#xe902;" glyph-name="packs" d="M1004 556h-73.703c-10.094 39.188-25.578 76.531-46.188 111.375l52.156 52.156c7.805 7.805 7.805 20.469 0 28.281l-124.453 124.453c-3.75 3.75-8.836 5.859-14.141 5.859s-10.391-2.109-14.141-5.859l-52.156-52.148c-34.844 20.602-72.188 36.094-111.375 46.18v73.703c0 11.047-8.953 20-20 20h-176c-11.047 0-20-8.953-20-20v-73.57c-39.258-10.055-76.656-25.523-111.57-46.125l-51.961 51.961c-3.75 3.75-8.836 5.852-14.141 5.852s-10.391-2.102-14.141-5.852l-124.453-124.453c-7.805-7.813-7.805-20.477 0-28.289l51.836-51.828c-20.703-34.945-36.258-72.398-46.375-111.695h-73.195c-11.047 0-20-8.953-20-20v-580c0-11.047 8.953-20 20-20h580c11.047 0 20 8.953 20 20v73.195c39.297 10.117 76.75 25.672 111.695 46.375l51.836-51.836c3.75-3.75 8.836-5.859 14.141-5.859s10.391 2.109 14.141 5.859l124.453 124.453c7.805 7.813 7.805 20.477 0 28.281l-51.961 51.961c20.602 34.914 36.070 72.32 46.125 111.57h73.57c11.047 0 20 8.953 20 20v176c0 11.047-8.953 20-20 20zM424-24h-384v400.836h95.117v-194.344c0-8.094 4.875-15.391 12.359-18.484 7.492-3.094 16.094-1.367 21.813 4.375l95.203 95.602 95.203-95.602c3.828-3.844 8.953-5.891 14.172-5.891 2.57 0 5.164 0.5 7.633 1.523 7.484 3.086 12.367 10.383 12.367 18.484v194.336h95.109v-400.836zM353.867 376.836v-145.914l-75.211 75.523c-3.75 3.766-8.852 5.883-14.172 5.883-5.313 0-10.414-2.117-14.172-5.883l-75.203-75.523v145.914zM412 448c0 55.141 44.859 100 100 100s100-44.859 100-100c0-49.352-35.945-90.445-83.023-98.531v47.367c0 11.047-8.961 20-20 20h-92c-3.289 10.008-4.977 20.453-4.977 31.164zM984 380h-69.391c-9.414 0-17.547-6.563-19.547-15.766-9.883-45.617-27.688-88.672-52.898-127.977-5.078-7.914-3.961-18.297 2.688-24.945l48.992-48.984-96.172-96.164-48.875 48.875c-6.664 6.664-17.063 7.773-24.977 2.672-39.328-25.328-82.422-43.219-128.078-53.18-9.188-2-15.734-10.133-15.734-19.539v-68.992h-51.031v177.141c154.992 8.82 278.391 137.695 278.391 294.859 0 65.758-21.148 128-61.164 179.992-38.734 50.336-93.578 87.438-154.422 104.469-10.633 2.977-21.672-3.234-24.648-13.867-2.977-10.641 3.227-21.68 13.867-24.656 109.727-30.711 186.367-131.844 186.367-245.938 0-135.102-105.469-246.016-238.391-254.781v115.844c69.211 8.414 123.023 67.492 123.023 138.938 0 77.195-62.805 140-140 140s-140-62.805-140-140c0-10.594 1.203-21.008 3.516-31.164h-116.977c-1.25 10.305-1.898 20.742-1.898 31.164 0 112.133 71.797 210.047 178.672 243.648 10.539 3.32 16.391 14.547 13.078 25.078-3.313 10.539-14.539 16.398-25.078 13.086-58.664-18.445-111.313-55.891-148.25-105.438-38.219-51.266-58.422-112.258-58.422-176.375 0-10.398 0.555-20.836 1.641-31.164h-178.281v99.164h68.992c9.406 0 17.539 6.547 19.547 15.734 9.953 45.656 27.844 88.75 53.18 128.086 5.094 7.914 3.984 18.313-2.672 24.969l-48.883 48.883 96.164 96.164 48.984-48.984c6.656-6.648 17.039-7.766 24.945-2.695 39.305 25.219 82.367 43.016 127.977 52.906 9.203 1.992 15.766 10.133 15.766 19.547v69.391h136v-69.5c0-9.406 6.555-17.539 15.742-19.539 45.547-9.938 88.539-27.766 127.789-52.992 7.914-5.086 18.305-3.969 24.953 2.68l49.195 49.195 96.164-96.172-49.188-49.188c-6.656-6.648-7.773-17.039-2.688-24.953 25.227-39.25 43.055-82.242 52.992-127.797 2-9.18 10.141-15.734 19.539-15.734h69.5zM512.75 743.359h-0.75c-11.047 0-20-8.953-20-20s8.953-20 20-20h0.75c11.047 0 20 8.953 20 20s-8.953 20-20 20zM422.164 138.664h-104c-11.039 0-20-8.953-20-20s8.961-20 20-20h104c11.047 0 20 8.953 20 20s-8.953 20-20 20zM422.164 61.336h-157.68c-11.039 0-20-8.953-20-20s8.961-20 20-20h157.68c11.047 0 20 8.953 20 20s-8.953 20-20 20zM172.844 61.344c-5.289 0-10.422-2.141-14.141-5.867-3.742-3.719-5.859-8.875-5.859-14.133 0-5.281 2.117-10.422 5.859-14.141 3.719-3.742 8.859-5.859 14.141-5.859 5.258 0 10.398 2.117 14.133 5.859 3.719 3.719 5.867 8.875 5.867 14.141 0 5.258-2.141 10.414-5.867 14.133-3.719 3.727-8.875 5.867-14.133 5.867z" />
<glyph unicode="&#xe903;" glyph-name="worker" d="M712 102c-11.040 0-20-8.96-20-20s8.96-20 20-20c11.040 0 20 8.96 20 20s-8.96 20-20 20zM312 102c-11.040 0-20-8.96-20-20s8.96-20 20-20 20 8.96 20 20c0 11.040-8.96 20-20 20zM895.29 205.58c-22.514 34.848-53.452 62.538-89.694 80.42-3.056 2.838-6.986 4.74-11.356 5.226-26.214 11.128-53.846 16.774-82.24 16.774h-60v52.766c34.722 29.792 59.684 69.252 71.788 113.234h8.212c44.112 0 80 35.888 80 80 0 20.904-8.068 39.952-21.244 54.22 1.258 1.068 2.486 2.18 3.666 3.358 11.336 11.336 17.578 26.402 17.578 42.422 0 26.326-17.052 48.732-40.686 56.792-7.066 91.968-71.612 170.56-160.482 195.192-5.266 27.504-27.964 54.016-58.832 54.016h-80c-30.868 0-53.566-26.512-58.832-54.016-88.862-24.63-153.402-103.208-160.48-195.164-8.604-2.918-16.494-7.784-23.11-14.398-11.336-11.336-17.578-26.402-17.578-42.422 0-18.326 8.268-34.75 21.26-45.764-13.184-14.268-21.26-33.324-21.26-54.236 0-44.112 35.888-80 80-80h8.156c10.104-36.714 29.262-70.42 55.988-98.262 5.022-5.236 10.346-10.224 15.856-14.956v-52.782h-60c-28.396 0-56.028-5.646-82.24-16.772-4.368-0.488-8.3-2.388-11.354-5.226-36.246-17.884-67.182-45.574-89.696-80.42-24.016-37.174-36.71-79.908-36.71-123.582v-126c0-11.044 8.954-20 20-20h800c11.046 0 20 8.956 20 20v126c0 43.674-12.694 86.408-36.71 123.58zM212-24h-80v106c0 60.834 31.164 119.142 80 153.756v-259.756zM732 514h-0.912c0.596 6.654 0.912 13.332 0.912 20v60c22.056 0 40-17.944 40-40s-17.944-40-40-40zM412 863.722v-89.722c0-11.046 8.954-20 20-20s20 8.954 20 20v115.874c0 0.052 0 0.104 0 0.156v3.97c0 12.392 10.468 26 20 26h80c9.532 0 20-13.608 20-26v-3.97c0-0.052 0-0.104 0-0.156v-115.874c0-11.046 8.954-20 20-20s20 8.954 20 20v89.722c64.58-22.854 111.2-81.294 118.882-149.722h-437.764c7.682 68.428 54.302 126.868 118.882 149.722zM292 514c-22.056 0-40 17.944-40 40s17.944 40 40 40v-60c0-6.668 0.316-13.348 0.912-20h-0.912zM292 634h-20c-11.028 0-20 8.972-20 20 0 5.336 2.082 10.358 5.862 14.136 3.782 3.782 8.802 5.864 14.138 5.864h480c11.028 0 20-8.972 20-20 0-5.336-2.082-10.358-5.862-14.136-3.78-3.782-8.802-5.864-14.138-5.864h-460zM335.634 497.634c-0.040 0.218-0.078 0.434-0.126 0.648-2.322 11.738-3.508 23.752-3.508 35.718v60h360v-60c0-11.956-1.186-23.962-3.508-35.71-0.048-0.216-0.086-0.434-0.126-0.652-8.938-44.614-33.674-84.55-69.694-112.482-31.292-24.308-68.178-37.156-106.672-37.156s-75.38 12.848-106.702 37.178c-7.17 5.548-13.994 11.686-20.29 18.252-25.23 26.284-42.294 58.846-49.374 94.204zM492-24h-160v46c0 11.046-8.954 20-20 20s-20-8.954-20-20v-46h-40v281.052c12.98 4.894 26.352 8.156 40 9.764v-124.816c0-11.046 8.954-20 20-20s20 8.954 20 20v126h51.43l108.57-114v-178zM412 296v37.252c30.862-16.59 64.854-25.252 100-25.252 35.148 0 69.142 8.664 100 25.25v-37.25l-100-105-100 105zM772-24h-40v46c0 11.046-8.954 20-20 20s-20-8.954-20-20v-46h-160v178l108.57 114h51.43v-126c0-11.046 8.954-20 20-20s20 8.954 20 20v124.816c13.648-1.608 27.018-4.872 40-9.766v-281.050zM892-24h-80v259.758c48.836-34.614 80-92.922 80-153.758v-106z" />
<glyph unicode="&#xe904;" glyph-name="checklist" d="M68.267 4.267h136.533v34.133h-136.533c-18.85 0-34.133 15.283-34.133 34.133v716.8c0 18.85 15.283 34.133 34.133 34.133h86.6c-4.067-7.092-6.825-14.858-8.158-22.917l-1.883-11.217h-59.492c-9.425 0-17.067-7.642-17.067-17.067v-682.667c0-9.425 7.642-17.067 17.067-17.067h119.467v34.133h-102.4v648.533h36.742l-2.367-14.267c-0.825-4.95 0.567-10.008 3.808-13.833s8-6.033 13.017-6.033h375.467c5.017 0 9.775 2.208 13.017 6.033s4.633 8.883 3.808 13.833l-2.367 14.267h36.742v-153.6h34.133v170.667c0 9.425-7.642 17.067-17.067 17.067h-59.492l-1.883 11.217c-1.333 8.058-4.092 15.825-8.158 22.917h86.6c18.85 0 34.133-15.283 34.133-34.133v-187.733h34.133v187.733c0 37.7-30.567 68.267-68.267 68.267h-187.733v17.067c0 47.125-38.208 85.333-85.333 85.333s-85.333-38.208-85.333-85.333v-17.067h-187.733c-37.7 0-68.267-30.567-68.267-68.267v-716.8c0-37.7 30.567-68.267 68.267-68.267zM180.358 794.95c2.75 16.467 17 28.525 33.692 28.517h59.017c9.425 0 17.067 7.642 17.067 17.067v34.133c0 28.275 22.925 51.2 51.2 51.2s51.2-22.925 51.2-51.2v-34.133c0-9.425 7.642-17.067 17.067-17.067h59.017c16.692 0.008 30.942-12.050 33.692-28.517l6.617-39.75h-335.183zM324.267 891.733h34.133v-34.133h-34.133zM243.933 664.867l-34.267-34.25c-6.833 3.333-14.333 5.083-21.933 5.117-28.275 0-51.2-22.925-51.2-51.2s22.925-51.2 51.2-51.2 51.2 22.925 51.2 51.2c-0.033 7.6-1.783 15.1-5.117 21.933l34.267 34.267zM187.733 567.467c-6.9 0-13.125 4.158-15.767 10.533s-1.175 13.717 3.7 18.6l24.133-24.133c-3.2-3.2-7.542-5-12.067-5zM273.067 635.733h68.267v-34.133h-68.267zM375.467 635.733h119.467v-34.133h-119.467zM273.067 567.467h238.933v-34.133h-238.933zM187.733 465.067c-28.275 0-51.2-22.925-51.2-51.2s22.925-51.2 51.2-51.2 51.2 22.925 51.2 51.2-22.925 51.2-51.2 51.2zM187.733 396.8c-9.425 0-17.067 7.642-17.067 17.067s7.642 17.067 17.067 17.067 17.067-7.642 17.067-17.067-7.642-17.067-17.067-17.067zM273.067 465.067h34.133v-34.133h-34.133zM341.333 465.067h34.133v-34.133h-34.133zM273.067 396.8h51.2v-34.133h-51.2zM187.733 294.4c-28.275 0-51.2-22.925-51.2-51.2s22.925-51.2 51.2-51.2 51.2 22.925 51.2 51.2-22.925 51.2-51.2 51.2zM187.733 226.133c-9.425 0-17.067 7.642-17.067 17.067s7.642 17.067 17.067 17.067 17.067-7.642 17.067-17.067-7.642-17.067-17.067-17.067zM273.067 294.4h34.133v-34.133h-34.133zM960.85 106.667h-5.117v85.333c0.65 147.825-99.383 277.125-242.633 313.617-10.275 36.583-43.633 61.867-81.633 61.867s-71.358-25.283-81.633-61.867c-130.958-33.367-227.117-145.017-240.692-279.483h-36.075v-34.133h34.133v-85.333h-5.117c-32.658-0.408-59.617-25.65-62.167-58.208s20.142-61.692 52.333-67.183l234.783-37.083c69.192-10.925 139.675-10.925 208.867 0l234.85 37.083c32.208 5.5 54.9 34.65 52.325 67.217-2.567 32.567-29.558 57.8-62.225 58.175zM580.267 482.133c0 28.275 22.925 51.2 51.2 51.2s51.2-22.925 51.2-51.2v-273.067h-102.4zM341.333 192c-0.442 100.308 51.267 193.633 136.533 246.458v-229.392h34.133v247.333c11.1 5 22.5 9.3 34.133 12.867v-277.267c0-9.425 7.642-17.067 17.067-17.067h136.533c9.425 0 17.067 7.642 17.067 17.067v277.267c11.633-3.567 23.033-7.867 34.133-12.867v-247.333h34.133v229.392c85.267-52.825 136.975-146.15 136.533-246.458v-85.333h-580.267zM965.425 14.983l-234.833-37.083c-65.683-10.292-132.567-10.292-198.25 0l-234.833 37.083c-14.65 2.675-24.9 16-23.717 30.842 1.175 14.842 13.4 26.383 28.292 26.708h658.767c14.875-0.358 27.075-11.908 28.233-26.742 1.167-14.833-9.083-28.142-23.725-30.808z" />
<glyph unicode="&#xe905;" glyph-name="fire" d="M893.812 360.462c-11.73 152.718-82.834 248.42-145.562 332.872-58.084 78.184-108.25 145.7-108.25 245.296 0 8-4.48 15.312-11.584 18.978-7.126 3.688-15.688 3.084-22.166-1.624-94.208-67.412-172.812-181.030-200.27-289.438-19.062-75.474-21.584-160.322-21.938-216.36-87 18.582-106.708 148.718-106.916 150.136-0.98 6.75-5.104 12.624-11.104 15.832-6.062 3.166-13.188 3.396-19.334 0.354-4.562-2.208-111.98-56.788-118.23-274.71-0.438-7.25-0.458-14.522-0.458-21.792 0-211.714 172.27-383.974 384-383.974 0.292-0.020 0.604-0.062 0.854 0 0.084 0 0.166 0 0.27 0 211.21 0.606 382.876 172.634 382.876 383.974 0 10.646-2.188 40.456-2.188 40.456zM512-21.304c-70.584 0-128 61.162-128 136.344 0 2.562-0.020 5.146 0.166 8.312 0.854 31.706 6.876 53.35 13.48 67.746 12.376-26.582 34.5-51.018 70.438-51.018 11.792 0 21.334 9.542 21.334 21.332 0 30.372 0.626 65.412 8.188 97.036 6.73 28.040 22.812 57.872 43.188 81.786 9.062-31.040 26.73-56.162 43.98-80.682 24.688-35.080 50.208-71.35 54.688-133.2 0.27-3.666 0.542-7.354 0.542-11.312-0.004-75.18-57.42-136.344-128.004-136.344z" />
<glyph unicode="&#xe906;" glyph-name="project" d="M332 720h302c16.57 0 30 13.43 30 30s-13.43 30-30 30h-302c-16.57 0-30-13.43-30-30s13.43-30 30-30zM870.359 873.641l-86.359-86.359v142.719c0 16.57-13.43 30-30 30h-544c-7.938 0-15.625-3.195-21.219-8.789l-179.992-179.992c-5.688-5.688-8.789-13.422-8.789-21.219v-664c0-82.711 67.289-150 150-150h604c82.711 0 150 67.289 150 150v60c0 16.57-13.43 30-30 30h-90v356.719l213.641 213.641c35.086 35.094 35.086 92.188 0 127.281-35.172 35.172-92.102 35.172-127.281 0zM180 857.57v-77.57h-77.57zM240 146v-60c0-49.625-40.375-90-90-90s-90 40.375-90 90c0 11.008 0 609.805 0 634h150c16.57 0 30 13.43 30 30v150h484v-172.719l-67.281-67.281h-506.719c-16.57 0-30-13.43-30-30s13.43-30 30-30h446.719l-60-60h-386.719c-16.57 0-30-13.43-30-30s13.43-30 30-30h326.719l-32.133-32.133c-3.289-3.297-5.773-7.305-7.242-11.727l-5.383-16.141h-281.961c-16.57 0-30-13.43-30-30s13.43-30 30-30h261.961l-14.805-44.422-15.586-15.578h-231.57c-16.57 0-30-13.43-30-30s13.43-30 30-30h239.836c9.648 0 17.5 0.906 25.375 8.789l24.367 24.367 120.563 40.188c4.414 1.469 8.43 3.953 11.727 7.242l152.133 152.133v-296.719h-454c-16.57 0-30-13.43-30-30zM565.211 398.789l-30.766-30.766-63.641-21.219 21.219 63.641 30.758 30.766zM844 116v-30c0-49.625-40.375-90-90-90h-484.070c18.867 25.086 30.070 56.266 30.070 90v30zM891.563 725.141l-283.922-283.93-42.43 42.43 283.922 283.922zM955.211 788.789l-21.227-21.227-42.422 42.422 21.219 21.227c11.703 11.695 30.734 11.695 42.43 0s11.695-30.727 0-42.422z" />
<glyph unicode="&#xe907;" glyph-name="research" d="M512 960c-282.304 0-512-229.696-512-512s229.696-512 512-512v64c-56.416 0-110.24 10.912-160 30.048v161.952h96v64h-96v160h96v64h-96v160h128v-96h64v96h128v-96h64v96h180.16c27.808-58.304 43.84-123.232 43.84-192h64c0 282.304-229.696 512-512 512zM288 60.608c-56.736 32.96-105.664 77.824-143.136 131.392h143.136v-131.392zM288 256h-180.16c-23.456 49.12-38.176 103.040-42.208 160h222.368v-160zM288 480h-222.368c4.064 56.96 18.784 110.88 42.208 160h180.16v-160zM288 704h-143.136c37.472 53.568 86.4 98.432 143.136 131.392v-131.392zM480 704h-128v161.952c40.256 15.456 83.168 25.248 128 28.416v-190.368zM672 704h-128v190.368c44.832-3.2 87.744-12.96 128-28.416v-161.952zM736 704v131.392c56.736-32.96 105.664-77.824 143.136-131.392h-143.136zM704 512c-123.488 0-224-100.48-224-224 0-112.608 83.648-205.824 192-221.44v-130.56h64v130.56c108.352 15.616 192 108.832 192 221.44 0 123.52-100.512 224-224 224zM704 128c-88.224 0-160 71.776-160 160s71.776 160 160 160 160-71.776 160-160-71.776-160-160-160zM608 288h64c0 17.632 14.336 32 32 32v64c-52.928 0-96-43.072-96-96z" />
<glyph unicode="&#xe908;" glyph-name="print" d="M963.896 628c36.468 27.39 60.104 70.984 60.104 120 0 82.71-67.288 150-149.998 150h-724.002c-82.71 0-150-67.29-150-150 0-49.016 23.636-92.612 60.104-120-36.468-27.39-60.104-70.984-60.104-120 0-72.44 51.616-133.046 120-146.982v-363.018h544v180h180v180h30.002c82.71 0 149.998 67.29 149.998 150 0 49.016-23.636 92.61-60.104 120zM874 838c49.626 0 90-40.374 90-90s-40.374-90-90-90-90 40.374-90 90 40.374 90 90 90zM120 508v-84.84c-34.918 12.384-60 45.73-60 84.84 0 49.626 40.374 90 90 90h0.082c-18.876-25.088-30.082-56.258-30.082-90zM604 478c0-19.322 0-398.87 0-420h-424v450c0 49.626 40.374 90.2 90 90.2h379.96c-28.56-31.87-45.96-74.138-45.96-120.2zM150 658h-0.004c-49.624 0-89.996 40.374-89.996 90s40.374 90.2 90 90.2h604.082c-18.876-25.088-30.082-56.458-30.082-90.2s11.206-64.912 30.082-90h-604.082zM754.082 418h-90.082v60c0 55.142 36.68 100.78 86.684 115.26-16.804-24.23-26.684-53.606-26.684-85.26 0-33.742 11.206-64.912 30.082-90zM784 238h-120v120h120v-120zM874 418c-49.626 0-90 40.374-90 90s40.374 90 90 90 90-40.374 90-90-40.374-90-90-90zM844 778h60v-60h-60v60zM844 538h60v-60h-60v60z" />
<glyph unicode="&#xe909;" glyph-name="back" d="M311.568 448.027l462.455 462.455c11.374 11.374 11.374 29.614 0 40.988s-29.614 11.374-40.988 0l-483.056-483.056c-11.374-11.374-11.374-29.614 0-40.988l483.056-482.842c5.58-5.58 13.090-8.584 20.387-8.584s14.807 2.79 20.387 8.584c11.374 11.374 11.374 29.614 0 40.988l-462.24 462.455z" />
<glyph unicode="&#xe90a;" glyph-name="document" d="M704.918 520c0 22.092-17.908 40-40 40h-412c-22.092 0-40-17.908-40-40s17.908-40 40-40h412c22.092 0 40 17.908 40 40zM252.918 400c-22.092 0-40-17.908-40-40s17.908-40 40-40h250.222c22.092 0 40 17.908 40 40s-17.908 40-40 40h-250.222zM346.918 16h-133.778c-44.112 0-80 35.888-80 80v704c0 44.112 35.888 80 80 80h491.778c44.112 0 80-35.888 80-80v-246c0-22.092 17.908-40 40-40s40 17.908 40 40v246c0 88.224-71.776 160-160 160h-491.778c-88.224 0-160-71.776-160-160v-704c0-88.224 71.776-160 160-160h133.778c22.092 0 40 17.908 40 40s-17.908 40-40 40zM935.768 380.856c-46.788 46.788-122.916 46.79-169.674 0.032l-219.606-219.12c-4.664-4.654-8.104-10.386-10.020-16.69l-47.826-157.45c-4.24-13.96-0.546-29.118 9.642-39.56 7.632-7.822 18-12.068 28.634-12.068 3.558 0 7.15 0.476 10.676 1.454l161.45 44.722c6.644 1.84 12.7 5.366 17.58 10.238l219.146 218.734c46.788 46.788 46.788 122.916-0.002 169.708zM667.552 56.464l-81.224-22.5 23.77 78.258 148.178 147.85 56.58-56.58-147.304-147.028zM879.23 267.74l-7.75-7.734-56.57 56.57 7.724 7.708c15.596 15.596 40.972 15.596 56.568 0s15.596-40.972 0.028-56.544zM664.918 720h-412c-22.092 0-40-17.908-40-40s17.908-40 40-40h412c22.092 0 40 17.908 40 40s-17.908 40-40 40z" />
<glyph unicode="&#xe90b;" glyph-name="comment" d="M511.994 927.997c-282.314 0-511.994-189.565-511.994-422.495 0-126.12 68.624-245.694 185.252-325.62-15.838-60.068-49.688-95.437-49.84-95.566-17.533-17.498-23.938-43.996-16.75-69.196 0.561-1.987 1.274-3.927 2.127-5.868 10.812-25.084 35.685-41.249 63.34-41.249 112.152 0 204.749 60.745 267.025 118.008 20.969-1.999 41.342-3.004 60.851-3.004 282.314 0 511.994 189.495 511.994 422.495-0.023 232.93-229.692 422.495-512.006 422.495zM511.994 180.63c-22.559 0-46.754 1.625-71.873 4.862-15.102 1.812-30.285-3.168-41.097-13.886-36.562-36.293-88.973-77.928-150.747-96.372 16.785 30.192 33.499 71.066 40.244 121.444 2.595 19.368-6.686 38.444-23.646 48.449-105.875 62.3-166.632 157.235-166.632 260.374 0 179.127 185.591 324.872 413.752 324.872 228.149 0 413.752-145.745 413.752-324.872 0-179.197-185.591-324.872-413.752-324.872zM728.84 596.871h-417.597c-13.559 0-24.569-10.94-24.569-24.441 0-13.43 10.999-24.371 24.569-24.371h417.609c13.559 0 24.558 10.94 24.558 24.371-0.012 13.5-10.999 24.441-24.569 24.441zM728.84 453.932h-417.597c-13.559 0-24.569-10.94-24.569-24.429 0-13.43 10.999-24.382 24.569-24.382h417.609c13.559 0 24.558 10.952 24.558 24.382-0.012 13.5-10.999 24.429-24.569 24.429z" />
<glyph unicode="&#xe90c;" glyph-name="time" d="M512 960c-282.317 0-512-229.683-512-512s229.683-512 512-512 512 229.683 512 512-229.683 512-512 512zM512 44.945c-222.243 0-403.066 180.802-403.066 403.055s180.823 403.055 403.066 403.055 403.066-180.802 403.066-403.055-180.823-403.055-403.066-403.055zM778.834 463.809h-230.094v276.657c0 23.281-18.876 42.157-42.157 42.157s-42.157-18.876-42.157-42.157v-318.814c0-23.281 18.876-42.157 42.157-42.157h272.252c23.281 0 42.157 18.876 42.157 42.157s-18.876 42.157-42.157 42.157z" />
<glyph unicode="&#xe90d;" glyph-name="mission" d="M659.945 331.32l-119.953 239.906v86.891h359.859v299.883h-419.836v-386.773l-119.961-239.906-90.836 181.672-271.219-578.602h1024l-271.219 578.602zM539.992 898.023h299.883v-179.93h-299.883zM628.781 259.539l-118.781-79.188-118.781 79.188 118.781 237.555zM92.352-5.633l178.609 381.031 55.57-111.133-134.953-269.898zM258.641-5.633l105.547 211.109 145.813-97.211 145.813 97.211 105.555-211.109zM828.422-5.633l-134.953 269.898 55.57 111.133 178.609-381.031z" />
<glyph unicode="&#xe90e;" glyph-name="vision" d="M871.952 620.758c-101.18 86.867-226.156 157.242-359.953 157.242-133.804 0-258.781-70.383-359.953-157.242-89.031-76.43-144.062-152-146.359-155.179-7.586-10.492-7.586-24.664 0-35.156 2.297-3.18 57.328-78.758 146.359-155.187 101.18-86.859 226.156-157.234 359.953-157.234 133.804 0 258.781 70.383 359.953 157.234 89.031 76.437 144.062 152.008 146.359 155.187 7.586 10.492 7.586 24.664 0 35.156-2.297 3.18-57.328 78.75-146.359 155.179zM511.999 178c-127.344 0-244.234 77.164-319.867 141.898-59.226 50.695-103.226 102.008-124.187 128.094 19.484 24.195 58.859 70.156 112.055 117.39 84.141 74.711 202.843 152.617 332 152.617 127.344 0 244.234-77.164 319.867-141.906 59.226-50.687 103.219-102 124.187-128.086-21.156-26.273-65.773-78.211-126.055-129.57-83.055-70.766-195.851-140.437-318-140.437zM511.999 658c-115.797 0-210-94.203-210-210s94.203-210 210-210 210 94.203 210 210-94.203 210-210 210zM511.999 298c-82.711 0-150 67.289-150 150s67.289 150 150 150 150-67.289 150-150-67.289-150-150-150zM511.999 538c-49.625 0-90-40.375-90-90s40.375-90 90-90 90 40.375 90 90-40.375 90-90 90zM511.999 418c-16.539 0-30 13.461-30 30s13.461 30 30 30 30-13.461 30-30-13.461-30-30-30zM30 718c16.57 0 30 13.43 30 30v152h152c16.57 0 30 13.43 30 30s-13.43 30-30 30h-182c-16.57 0-30-13.43-30-30v-182c0-16.57 13.43-30 30-30zM993.999 959.999h-182c-16.57 0-30-13.43-30-30s13.43-30 30-30h152v-152c0-16.57 13.43-30 30-30s30 13.43 30 30v182c0 16.57-13.43 30-30 30zM993.999 178c-16.57 0-30-13.43-30-30v-152h-152c-16.57 0-30-13.43-30-30s13.43-30 30-30h182c16.57 0 30 13.43 30 30v182c0 16.57-13.43 30-30 30zM242-33.999c0 16.57-13.43 30-30 30h-152v152c0 16.57-13.43 30-30 30s-30-13.43-30-30v-182c0-16.57 13.43-30 30-30h182c16.57 0 30 13.43 30 30z" />
<glyph unicode="&#xe90f;" d="M512 134.194c-66.065 0-99.097-66.065-99.097-66.065h198.194c0 0-33.032 66.065-99.097 66.065z" />
<glyph unicode="&#xe910;" d="M660.645 745.29c0-82.094-66.551-148.645-148.645-148.645s-148.645 66.551-148.645 148.645c0 82.094 66.551 148.645 148.645 148.645s148.645-66.551 148.645-148.645z" />
<glyph unicode="&#xe911;" d="M512 530.581c118.388 0 214.71 96.322 214.71 214.71s-96.322 214.71-214.71 214.71-214.71-96.322-214.71-214.71 96.322-214.71 214.71-214.71zM397.13 728.774c1.701-28.441 7.432-53.859 15.707-76.024-15.657-9.86-27.070-20.794-34.7-29.861-26.095 28.507-43.289 65.222-46.972 105.885h65.965zM511.934 922.674c12.883-10.769 36.881-33.99 55.742-69.351-15.145-5.351-33.544-8.935-55.676-8.935-22.297 0-40.745 3.634-55.957 9.034 18.845 35.493 42.892 58.517 55.891 69.252zM426.595 868.22c-11.115 7.548-18.927 15.459-24.047 21.735 17.656 13.395 37.756 23.651 59.607 29.894-11.875-13.51-24.477-30.687-35.559-51.629zM561.846 919.849c21.834-6.243 41.934-16.5 59.574-29.878-5.12-6.243-12.916-14.154-24.047-21.702-11.049 20.909-23.668 38.070-35.526 51.58zM512 811.355c27.433 0 50.275 4.674 69.17 11.66 6.491-18.102 11.082-38.549 12.651-61.209h-163.658c1.553 22.743 6.061 43.206 12.503 61.291 18.911-7.036 41.802-11.743 69.335-11.743zM593.837 728.774c-1.553-22.743-6.061-43.206-12.486-61.291-18.927 7.036-41.819 11.743-69.351 11.743-27.433 0-50.275-4.674-69.17-11.66-6.491 18.102-11.082 38.549-12.651 61.209 0 0 163.658 0 163.658 0zM512.066 567.907c-12.883 10.769-36.881 33.99-55.742 69.351 15.145 5.351 33.544 8.935 55.676 8.935 22.297 0 40.745-3.634 55.957-9.034-18.845-35.493-42.892-58.517-55.891-69.252zM597.405 622.361c11.115-7.548 18.927-15.459 24.047-21.735-17.656-13.395-37.756-23.651-59.607-29.894 11.875 13.51 24.493 30.687 35.559 51.629zM462.154 570.731c-21.834 6.243-41.934 16.5-59.574 29.878 5.12 6.243 12.916 14.154 24.047 21.702 11.049-20.909 23.668-38.070 35.526-51.58zM645.863 622.889c-7.63 9.051-19.060 20.001-34.7 29.861 8.275 22.165 14.006 47.599 15.707 76.024h65.982c-3.7-40.663-20.893-77.378-46.988-105.885zM692.835 761.806h-65.982c-1.701 28.441-7.432 53.859-15.707 76.024 15.657 9.86 27.070 20.794 34.7 29.861 26.112-28.507 43.305-65.222 46.988-105.885zM378.137 867.691c7.63-9.051 19.060-20.001 34.7-29.861-8.275-22.165-14.006-47.599-15.707-76.024h-65.982c3.7 40.663 20.893 77.378 46.988 105.885z" />
<glyph unicode="&#xe912;" d="M0 728.774h33.032v-198.194h-33.032v198.194z" />
<glyph unicode="&#xe913;" d="M165.161 728.774h33.032v-198.194h-33.032v198.194z" />
<glyph unicode="&#xe914;" d="M990.968 728.774h33.032v-198.194h-33.032v198.194z" />
<glyph unicode="&#xe915;" d="M825.806 728.774h33.032v-198.194h-33.032v198.194z" />
<glyph unicode="&#xe916;" d="M0 794.839h33.032v-33.032h-33.032v33.032z" />
<glyph unicode="&#xe917;" d="M165.161 794.839h33.032v-33.032h-33.032v33.032z" />
<glyph unicode="&#xe918;" d="M825.806 794.839h33.032v-33.032h-33.032v33.032z" />
<glyph unicode="&#xe919;" d="M990.968 794.839h33.032v-33.032h-33.032v33.032z" />
<glyph unicode="&#xe91a;" d="M82.581 662.71h33.032v-31.86h-33.032v31.86z" />
<glyph unicode="&#xe91b;" d="M82.581 578.973h33.032v-31.86h-33.032v31.86z" />
<glyph unicode="&#xe91c;" d="M82.581 495.236h33.032v-31.86h-33.032v31.86z" />
<glyph unicode="&#xe91d;" d="M247.742 662.71h33.032v-31.86h-33.032v31.86z" />
<glyph unicode="&#xe91e;" d="M247.742 578.973h33.032v-31.86h-33.032v31.86z" />
<glyph unicode="&#xe91f;" d="M247.742 495.236h33.032v-31.86h-33.032v31.86z" />
<glyph unicode="&#xe920;" d="M743.226 662.71h33.032v-31.86h-33.032v31.86z" />
<glyph unicode="&#xe921;" d="M743.226 578.973h33.032v-31.86h-33.032v31.86z" />
<glyph unicode="&#xe922;" d="M743.226 495.236h33.032v-31.86h-33.032v31.86z" />
<glyph unicode="&#xe923;" d="M908.387 662.71h33.032v-31.86h-33.032v31.86z" />
<glyph unicode="&#xe924;" d="M908.387 578.973h33.032v-31.86h-33.032v31.86z" />
<glyph unicode="&#xe925;" d="M908.387 495.236h33.032v-31.86h-33.032v31.86z" />
<glyph unicode="&#xe926;" d="M445.935 200.258h132.129v-33.032h-132.129v33.032z" />
<glyph unicode="&#xe927;" d="M990.968 183.032l-346.872-15.079c-0.066 11.826-1.8 23.255-4.79 34.155l186.5 33.924v46.807h-247.742v-1.354c-5.45 3.171-11.132 5.962-17.045 8.341l-14.666 176.111c-1.486 17.722-16.566 31.612-34.354 31.612s-32.867-13.89-34.354-31.612l-14.683-176.128c-5.913-2.378-11.578-5.17-17.045-8.341v1.371h-247.725v-46.807l186.5-33.908c-2.989-10.901-4.724-22.33-4.79-34.155l-346.872 15.063v33.742h-33.032v-97.082l88.758-11.578c-3.815-7.019-6.177-14.931-6.177-23.469 0-27.318 22.231-49.548 49.548-49.548s49.548 22.231 49.548 49.548c0 3.997-0.595 7.829-1.503 11.545l100.6-13.114v-97.528h-16.516v16.516h-33.032v-66.065h33.032v16.516h66.065v-16.516h33.032v66.065h-33.032v-16.516h-16.516v41.29l58.963 44.23 9.612-1.255c6.359-20.051 24.923-34.717 47.038-34.717h165.161c22.115 0 40.679 14.666 47.021 34.717l9.612 1.255 58.979-44.23v-41.29h-16.516v16.516h-33.032v-66.065h33.032v16.516h66.065v-16.516h33.032v66.065h-33.032v-16.516h-16.516v97.528l100.6 13.114c-0.908-3.716-1.503-7.548-1.503-11.545 0-27.318 22.231-49.548 49.548-49.548s49.548 22.231 49.548 49.548c0 8.539-2.362 16.45-6.177 23.469l88.758 11.578v97.082h-33.032v-33.742zM132.129 68.129c-9.1 0-16.516 7.416-16.516 16.516s7.416 16.516 16.516 16.516 16.516-7.416 16.516-16.516-7.416-16.516-16.516-16.516zM891.871 68.129c-9.1 0-16.516 7.416-16.516 16.516s7.416 16.516 16.516 16.516 16.516-7.416 16.516-16.516-7.416-16.516-16.516-16.516zM626.242 233.307c-3.353 5.781-7.085 11.314-11.264 16.5h101.987l-90.723-16.5zM510.58 463.195c0.132 1.503 2.725 1.503 2.857 0l13.725-164.781c-4.988 0.578-10.025 0.941-15.162 0.941s-10.174-0.363-15.162-0.941l13.741 164.781zM307.035 249.806h101.987c-4.162-5.186-7.895-10.719-11.264-16.5l-90.723 16.5zM33.032 149.983l346.839-15.079v-31.447l-346.839 45.238v1.288zM313.806 68.129v10.636l12.073-1.569-12.073-9.067zM611.097 84.645c0-9.1-7.416-16.516-16.516-16.516h-165.161c-9.1 0-16.516 7.416-16.516 16.516v82.581c0 54.652 44.445 99.097 99.097 99.097s99.097-44.445 99.097-99.097v-82.581zM710.194 68.129l-12.073 9.051 12.073 1.586v-10.636zM644.129 103.457v31.447l346.839 15.079v-1.288l-346.839-45.238z" />
<glyph unicode="&#xe928;" glyph-name="factory-1" d="M783.344 749.242c5.258 0 10.414 2.141 14.133 5.859 3.727 3.719 5.867 8.875 5.867 14.141 0 5.258-2.141 10.414-5.867 14.141-3.719 3.719-8.875 5.859-14.133 5.859-5.281 0-10.422-2.141-14.164-5.859-3.719-3.727-5.836-8.883-5.836-14.141 0-5.266 2.117-10.422 5.836-14.141 3.742-3.719 8.883-5.859 14.164-5.859zM1013.406 574.195l-164 87.453c-6.195 3.305-13.672 3.117-19.695-0.5-6.023-3.609-9.711-10.125-9.711-17.148v-54.125l-134.594 71.773c-6.195 3.305-13.672 3.117-19.695-0.5s-9.711-10.125-9.711-17.148v-54.125l-134.594 71.773c-6.195 3.305-13.672 3.117-19.695-0.5-6.023-3.609-9.711-10.125-9.711-17.148v-220h-308v220c0 11.047-8.953 20-20 20h-28.68v28.32c0 4.789 3.891 8.68 8.68 8.68 11.047 0 20 8.953 20 20s-8.953 20-20 20c-26.844 0-48.68-21.836-48.68-48.68v-28.32h-35.32v94.078c0 38.094 30.992 69.086 69.078 69.086h32.297c-1.219-5.484-1.875-11.102-1.875-16.758 0-42.133 34.281-76.406 76.406-76.406h75.516c11.047 0 20 8.953 20 20s-8.953 20-20 20h-75.516c-20.070 0-36.406 16.336-36.406 36.406 0 10.133 4.195 20.055 11.5 27.227 7.031 6.891 16.117 10.547 25.641 10.406 5.289-0.102 10.367-1.313 15.086-3.586 5.039-2.43 10.859-2.641 16.063-0.586 5.195 2.063 9.297 6.203 11.305 11.422 14.875 38.703 52.734 64.711 94.203 64.711 41.859 0 79.148-26.258 94.016-64.297-6.109-3.367-11.883-7.352-17.141-11.922-8.797-7.641-16.102-16.672-21.719-26.844-5.344-9.664-1.836-21.836 7.836-27.172 3.063-1.695 6.383-2.5 9.656-2.5 7.039 0 13.875 3.727 17.516 10.328 3.352 6.055 7.711 11.438 12.953 16 6.305 5.477 13.813 9.578 21.773 11.945 5.398 1.602 11.023 2.438 16.734 2.438 32.383 0 58.734-26.352 58.734-58.734 0-11.047 8.953-20 20-20h109.102c11.047 0 20 8.953 20 20s-8.953 20-20 20h-91.133c-9.273 44.891-49.109 78.734-96.703 78.734-3.117 0-6.219-0.148-9.305-0.438-20.055 54.578-72.898 92.461-132.32 92.461-51.539 0-99.078-28.766-123.555-73.195-4.039 0.734-8.156 1.148-12.328 1.227-19.906 0.398-38.758-7.031-53.375-20.867h-54.961c-60.141 0-109.078-48.938-109.078-109.086v-94.078c-11.047 0-20-8.953-20-20v-688c0-11.047 8.953-20 20-20h984c11.047 0 20 8.953 20 20v600.547c0 7.391-4.070 14.172-10.594 17.648zM40 544h104v-488h-104zM144 584h-104v40h104zM40 16h104v-40h-104zM512-24h-328v328h180c11.047 0 20 8.953 20 20s-8.953 20-20 20h-180v40h600v-408zM984-24h-160v428c0 11.047-8.953 20-20 20h-272v186.672l134.594-71.773c6.195-3.305 13.672-3.109 19.695 0.5 6.023 3.617 9.711 10.125 9.711 17.148v54.125l134.594-71.766c6.195-3.313 13.672-3.117 19.695 0.492 6.023 3.617 9.711 10.125 9.711 17.156v54.117l124-66.117zM340 248h-96c-11.047 0-20-8.953-20-20v-96c0-11.047 8.953-20 20-20h96c11.047 0 20 8.953 20 20v96c0 11.047-8.953 20-20 20zM320 152h-56v56h56zM532 248h-96c-11.047 0-20-8.953-20-20v-96c0-11.047 8.953-20 20-20h96c11.047 0 20 8.953 20 20v96c0 11.047-8.953 20-20 20zM512 152h-56v56h56zM724 248h-96c-11.047 0-20-8.953-20-20v-96c0-11.047 8.953-20 20-20h96c11.047 0 20 8.953 20 20v96c0 11.047-8.953 20-20 20zM704 152h-56v56h56zM438.344 304c5.258 0 10.414 2.141 14.133 5.859 3.727 3.719 5.867 8.883 5.867 14.141s-2.141 10.422-5.867 14.141c-3.719 3.719-8.875 5.859-14.133 5.859-5.281 0-10.422-2.141-14.141-5.859-3.742-3.719-5.859-8.883-5.859-14.141s2.117-10.422 5.859-14.141c3.719-3.719 8.875-5.859 14.141-5.859z" />
<glyph unicode="&#xe929;" d="M928 452.464v183.072l-66.896 22.304c-4.704 13.664-10.448 27.424-17.184 41.024l31.648 63.264-129.44 129.44-63.264-31.648c-13.616 6.736-27.36 12.48-41.024 17.184l-22.304 66.896h-183.072l-22.304-66.896c-13.664-4.704-27.424-10.448-41.024-17.184l-63.264 31.648-129.44-129.44 31.648-63.264c-6.736-13.616-12.48-27.36-17.184-41.024l-66.896-22.304v-183.056l66.896-22.304c4.672-13.568 10.352-27.184 16.992-40.688l-29.36-53.488h9.472v-32h176l15.76 15.76-10.096 0.24c-71.088 49.072-117.664 131.088-117.664 224 0 150.224 121.776 272 272 272s272-121.776 272-272c0-97.344-51.136-182.736-128-230.8l-9.344 0.208c-5.792-5.808-13.808-9.408-22.656-9.408h64.016c17.68 0 32-14.32 32-32s-14.32-32-32-32c17.68 0 32-14.32 32-32 0-4.032-0.832-7.84-2.192-11.392l13.52 0.128 128.192 129.2-31.616 63.2c6.72 13.616 12.464 27.36 17.168 41.024l66.912 22.304z" />
<glyph unicode="&#xe92a;" d="M960 48c-26.464 0-48-21.536-48-48s21.536-48 48-48 48 21.536 48 48-21.536 48-48 48zM960-16c-8.816 0-16 7.168-16 16s7.184 16 16 16 16-7.168 16-16-7.184-16-16-16z" />
<glyph unicode="&#xe92b;" d="M112 912c0 26.464-21.536 48-48 48s-48-21.536-48-48 21.536-48 48-48 48 21.536 48 48zM48 912c0 8.816 7.184 16 16 16s16-7.184 16-16-7.184-16-16-16-16 7.184-16 16z" />
<glyph unicode="&#xe92c;" d="M816 544c0 158.8-129.2 288-288 288s-288-129.2-288-288c0-87.344 39.712-169.504 107.12-224h-139.12v32h-112v-320h112v48h121.376l48-48h86.624v-16c0-35.296 28.704-64 64-64s64 28.704 64 64v16h112.016c26.464 0 48 21.536 48 48 0 12.336-4.816 23.488-12.48 32 7.68 8.512 12.48 19.664 12.48 32s-4.816 23.488-12.48 32c7.68 8.512 12.48 19.664 12.48 32s-4.816 23.488-12.48 32c7.68 8.512 12.48 19.664 12.48 32 0 24.96-19.216 45.28-43.584 47.552 67.872 54.4 107.568 136.032 107.568 224.448zM176 64h-48v256h48v-256zM390.624 64l-48 48h-134.624v176h166.624l64 64h201.376c8.816 0 16-7.168 16-16s-7.184-16-16-16h-166.624l-68.688-68.688 22.624-22.624 36.688 36.688v-201.376h-73.376zM633.376 384h-41.376v73.376l64 64v86.624c0 35.296-28.704 64-64 64h-32v-89.376l-6.624-6.624h-50.752l-6.624 6.624v89.376h-32c-35.296 0-64-28.704-64-64v-86.624l64-64v-73.376h-38.624l-1.008-1.008c-54.624 35.248-88.368 95.68-88.368 161.008 0 105.872 86.128 192 192 192s192-86.128 192-192c0-64.848-32.4-124.24-86.624-160zM489.376 544h77.248l25.376 25.376v70.624c17.648 0 32-14.352 32-32v-73.376l-54.624-54.624h-82.752l-54.624 54.624v73.376c0 17.648 14.352 32 32 32v-70.624l25.376-25.376zM496 448h64v-64h-64v64zM720.016 208c0-8.832-7.184-16-16-16h-128.016c-8.816 0-16 7.168-16 16s7.184 16 16 16h128.016c8.816 0 16-7.168 16-16zM720.016 144c0-8.832-7.184-16-16-16h-128.016c-8.816 0-16 7.168-16 16s7.184 16 16 16h128.016c8.816 0 16-7.168 16-16zM528-16c-17.648 0-32 14.352-32 32v272h34.944c-1.792-5.024-2.944-10.368-2.944-16 0-12.336 4.816-23.488 12.48-32-7.68-8.512-12.48-19.664-12.48-32s4.816-23.488 12.48-32c-7.68-8.512-12.48-19.664-12.48-32s4.816-23.488 12.48-32c-7.68-8.512-12.48-19.664-12.48-32 0-20.832 13.424-38.432 32-45.056v-18.944c0-17.648-14.352-32-32-32zM704.016 64h-128.016c-8.816 0-16 7.168-16 16s7.184 16 16 16h128.016c8.816 0 16-7.168 16-16s-7.184-16-16-16zM720.016 272c0-8.832-7.184-16-16-16h-128.016c-8.816 0-16 7.168-16 16s7.184 16 16 16h128.016c8.816 0 16-7.168 16-16zM687.232 343.6c-1.824 11.344-7.616 21.264-15.936 28.48 50.992 42.336 80.704 104.672 80.704 171.92 0 123.52-100.48 224-224 224s-224-100.48-224-224c0-73.904 36.768-142.72 97.072-184.304l-23.040-23.040c-66.448 48.128-106.032 125.152-106.032 207.344 0 141.152 114.848 256 256 256s256-114.848 256-256c0-79.072-35.744-152.032-96.768-200.4z" />
<glyph unicode="&#xe92d;" d="M48 816h32v-32h-32v32z" />
<glyph unicode="&#xe92e;" d="M48 736h32v-32h-32v32z" />
<glyph unicode="&#xe92f;" d="M48 656h32v-32h-32v32z" />
<glyph unicode="&#xe930;" d="M944 288h32v-32h-32v32z" />
<glyph unicode="&#xe931;" d="M944 208h32v-32h-32v32z" />
<glyph unicode="&#xe932;" d="M944 128h32v-32h-32v32z" />
<glyph unicode="&#xe933;" d="M379.879 365.419v66.065l-17.689 17.689c-22.495 22.495-37.706 50.82-44.412 81.408h-36.996v-231.226l99.097 33.032v33.032z" />
<glyph unicode="&#xe934;" d="M706.238 530.581c-6.722-30.588-21.933-58.913-44.412-81.408l-17.689-17.689v-99.097l99.097-33.032v231.226h-36.996z" />
<glyph unicode="&#xe935;" d="M561.557 937.967h-4.377c-3.022 3.336-7.284 5.516-12.139 5.516h-66.065c-4.856 0-9.117-2.18-12.139-5.516h-4.377c-98.651-21.57-173.816-105.934-181.099-209.21l461.295 0.017c-7.284 103.259-82.449 187.623-181.099 209.193z" />
<glyph unicode="&#xe936;" d="M462.295-49.829l-32.702 4.691 32.14 224.983-29.531 44.28 27.483 18.333 36.534-54.817z" />
<glyph unicode="&#xe937;" d="M561.722-49.829l-33.924 237.469 36.534 54.817 27.483-18.333-29.531-44.28 32.14-224.983z" />
<glyph unicode="&#xe938;" d="M759.75 728.774h-495.484c-18.25 0-33.032-14.782-33.032-33.032v0c0-18.25 14.782-33.032 33.032-33.032h495.484c18.25 0 33.032 14.782 33.032 33.032v0c0 18.25-14.782 33.032-33.032 33.032z" />
<glyph unicode="&#xe939;" d="M924.532 154.442c-11.099 66.543-57.757 121.146-121.757 142.485l-43.025 14.336v186.285h-33.032v-175.286l-66.065 22.016v21.141h-33.032v-31.034l-24.642-98.568-66.709 80.054h-48.524l-66.709-80.054-24.642 98.568v31.034h-33.032v-21.124l-66.065-22.016v175.269h-33.032v-186.285l-43.008-14.336c-64-21.339-110.658-75.941-121.757-142.485l-36.418-218.442h897.833l-36.385 218.442zM231.697 265.596l136.489 45.485 36.6-146.382 98.453 118.14h17.54l98.453-118.14 36.6 146.382 136.489-45.485c52.373-17.474 90.541-62.15 99.625-116.587l19.241-115.514-102.053-12.75c-0.958 54.487-36.17 90.558-37.706 92.094l-23.354-23.354c0.281-0.297 28.193-28.672 28.193-70.904 0-27.4-5.45-42.579-8.902-49.548h-510.646c-3.584 7.168-8.968 22.33-8.968 49.548 0 41.72 27.962 70.656 28.243 70.953l-11.726 11.627-11.677 11.677c-1.519-1.519-36.748-37.607-37.706-92.094l-102.053 12.75 19.241 115.514c9.084 54.437 47.253 99.113 99.625 116.587zM107.396 0.908l109.783-13.725c1.123-6.937 2.527-12.949 4.146-18.151h-119.23l5.302 31.876zM802.709-30.968c1.602 5.203 3.006 11.214 4.146 18.151l109.783 13.725 5.285-31.876h-119.213z" />
<glyph unicode="&#xe93a;" d="M250.079 648.506c-11.594-14.22-18.845-32.124-18.845-51.861 0-42.38 32.206-76.998 73.365-81.656 8.423-28.986 23.981-55.56 45.915-77.494l64.396-64.396c15.591-15.591 36.335-24.196 58.401-24.196h77.395c22.066 0 42.81 8.605 58.401 24.196l64.396 64.396c21.933 21.933 37.475 48.508 45.915 77.494 41.158 4.658 73.365 39.275 73.365 81.656 0 19.737-7.251 37.64-18.845 51.861 20.381 6.144 35.361 24.873 35.361 47.236 0 27.318-22.231 49.548-49.548 49.548h-2.362c-13.725 101.921-90.806 186.616-192.297 208.813l-0.198-0.908c-5.549 4.212-12.371 6.805-19.852 6.805h-66.065c-7.482 0-14.303-2.593-19.852-6.805l-0.198 0.908c-101.492-22.181-178.556-106.909-192.297-208.813h-2.362c-27.318 0-49.548-22.231-49.548-49.548 0-22.363 14.98-41.092 35.361-47.236zM264.266 596.645c0 21.504 13.857 39.672 33.032 46.509v-77.18c0-5.401 0.314-10.752 0.776-16.070-19.572 6.606-33.809 24.956-33.809 46.741zM650.149 460.85l-64.396-64.396c-9.365-9.365-21.801-14.518-35.047-14.518h-77.395c-13.246 0-25.699 5.153-35.047 14.518l-64.396 64.396c-28.061 28.077-43.537 65.404-43.537 105.109v80.235h363.355v-80.219c0-39.721-15.476-77.031-43.537-105.125zM725.942 549.905c0.462 5.318 0.776 10.653 0.776 16.070v77.18c19.175-6.838 33.032-25.005 33.032-46.509 0-21.785-14.237-40.134-33.809-46.741zM445.944 916.298v-137.976h33.032v148.645h66.065v-148.645h33.032v137.976c76.536-24.824 133.682-91.483 146.102-171.008h-424.332c12.437 79.542 69.566 146.184 146.102 171.008zM264.266 712.258h495.484c9.117 0 16.516-7.399 16.516-16.516s-7.399-16.516-16.516-16.516h-495.484c-9.117 0-16.516 7.399-16.516 16.516s7.399 16.516 16.516 16.516z" />
<glyph unicode="&#xe93b;" d="M611.105 811.355h33.032v-33.032h-33.032v33.032z" />
<glyph unicode="&#xe93c;" d="M379.879 811.355h33.032v-33.032h-33.032v33.032z" />
<glyph unicode="&#xe93d;" glyph-name="patent" d="M959.997 960h-895.993c-35.346 0-64-28.654-64-64v-725.328c0-35.346 28.654-64 64-64h511.996v42.666h-511.996c-11.782 0-21.334 9.552-21.334 21.334v725.328c0 11.782 9.552 21.334 21.334 21.334h895.993c11.782 0 21.334-9.552 21.334-21.334v-725.328c0-11.782-9.552-21.334-21.334-21.334h-42.666v-42.666h42.666c35.346 0 64 28.654 64 64v725.328c0 35.346-28.654 64-64 64zM895.997 746.668c-47.128 0-85.333 38.206-85.333 85.333 0 11.782-9.552 21.334-21.334 21.334h-554.66c-11.782 0-21.334-9.552-21.334-21.334 0-47.128-38.206-85.333-85.333-85.333-11.782 0-21.334-9.552-21.334-21.334v-383.997c0-11.782 9.552-21.334 21.334-21.334 47.128 0 85.333-38.206 85.333-85.333 0-11.782 9.552-21.334 21.334-21.334h277.332v42.67h-257.77c-9.176 53.676-51.22 95.719-104.895 104.895v344.871c53.676 9.176 95.719 51.22 104.895 104.895h515.538c9.176-53.676 51.22-95.719 104.895-104.895v-172.437h42.666v191.999c0 11.784-9.552 21.334-21.334 21.334zM746.666 512.003c-106.037 0-191.999-85.961-191.999-191.999s85.961-191.999 191.999-191.999c105.985 0.13 191.869 86.013 191.999 191.999 0 106.037-85.961 191.999-191.999 191.999zM746.666 170.672c-82.473 0-149.333 66.857-149.333 149.333 0 82.473 66.857 149.333 149.333 149.333 82.435-0.094 149.239-66.897 149.333-149.333-0.002-82.473-66.859-149.333-149.333-149.333zM831.998 192.006v-190.271l-71.999 57.6c-7.794 6.24-18.872 6.24-26.666 0l-71.999-57.6v190.271h-42.666v-234.664c-0.002-4.85 1.648-9.556 4.68-13.342 7.364-9.198 20.79-10.684 29.986-3.32l93.333 74.665 93.333-74.665c3.784-3.026 8.488-4.674 13.334-4.672 11.782 0 21.334 9.552 21.334 21.334v234.664h-42.67zM725.332 746.668h-426.663c-11.782 0-21.334-9.552-21.334-21.334v-85.331c0-11.782 9.552-21.334 21.334-21.334h426.663c11.782 0 21.334 9.552 21.334 21.334v85.333c0 11.782-9.552 21.332-21.334 21.332zM703.999 661.336h-383.997v42.666h383.997v-42.666zM256.002 554.669h42.666v-42.666h-42.666v42.666zM341.335 554.669h42.666v-42.666h-42.666v42.666zM256.002 469.338h255.998v-42.666h-255.998v42.666zM746.666 426.67c-58.91 0-106.665-47.756-106.665-106.665s47.756-106.665 106.665-106.665c58.882 0.070 106.595 47.786 106.665 106.665 0 58.91-47.756 106.665-106.665 106.665zM746.666 256.005c-35.346 0-64 28.654-64 64s28.654 64 64 64 64-28.654 64-64-28.654-64-64-64zM106.671 256.005h42.666v-42.666h-42.666v42.666zM874.665 853.335h42.666v-42.666h-42.666v42.666zM106.671 853.335h42.666v-42.666h-42.666v42.666z" />
<glyph unicode="&#xe93e;" glyph-name="search" d="M998.935 82.081l-222.458 222.454c-1.182 1.182-2.569 2.009-3.805 3.109 43.772 66.399 69.32 145.881 69.32 231.356 0 232.513-188.487 421-420.996 421s-420.996-188.487-420.996-420.996c0-232.505 188.483-420.996 420.992-420.996 85.479 0 164.956 25.548 231.356 69.32 1.1-1.231 1.923-2.618 3.105-3.8l222.462-222.462c33.418-33.414 87.598-33.414 121.020 0 33.414 33.418 33.414 87.598 0 121.016zM420.996 263.953c-151.911 0-275.054 123.144-275.054 275.050 0 151.911 123.148 275.054 275.054 275.054 151.902 0 275.050-123.148 275.050-275.054s-123.148-275.050-275.050-275.050z" />
<glyph unicode="&#xe93f;" glyph-name="question" d="M512.001 960c-242.632 0-440.001-192.486-440.001-431.703 0-137.26 66.042-265.279 177.758-346.669v-205.63c0-15.876 9.388-30.248 23.924-36.626 14.45-6.346 31.408-3.618 43.154 7.186l164.288 151.11c10.34-0.71 20.67-1.070 30.876-1.070 242.632 0 440.001 192.486 440.001 431.703 0 239.438-197.58 431.699-440.001 431.699zM512.001 176.596c-13.374 0-27.032 0.752-40.596 2.236-11.474 1.268-22.932-2.506-31.43-10.322l-110.216-101.374v135.452c0 13.482-6.792 26.058-18.068 33.452-99.994 65.558-159.69 174.812-159.69 292.257 0 193.93 161.494 351.703 360.001 351.703s360.001-157.772 360.001-351.703c0-193.926-161.496-351.701-360.001-351.701zM532.001 762.246h-140c-22.092 0-40-17.908-40-40s17.908-40 40-40h140c33.084 0 60-26.916 60-60s-26.916-60-60-60h-40c-22.092 0-40-17.908-40-40v-57.586c0-22.092 17.908-40 40-40s40 17.908 40 40v17.586c77.196 0 140 62.802 140 140 0 77.196-62.804 140-140 140zM546.001 321.679c0-29.823-24.177-54-54-54s-54 24.177-54 54c0 29.823 24.177 54 54 54s54-24.177 54-54z" />
<glyph unicode="&#xe940;" glyph-name="oil" d="M915.456 956.046c-3.72 3.106-8.584 4.438-13.38 3.788-4.778-0.7-9.062-3.396-11.742-7.424l-68.266-102.4c-1.86-2.798-2.868-6.11-2.868-9.472v-153.6h-750.934c-37.648 0-68.266-30.618-68.266-68.266 0-37.65 30.618-68.266 68.266-68.266h34.134v-136.534h-85.334c-9.42 0-17.066-7.646-17.066-17.066v-102.4c0-9.42 7.646-17.066 17.066-17.066h204.8c9.42 0 17.066 7.646 17.066 17.066v102.4c0 9.42-7.646 17.066-17.066 17.066h-34.132c-9.42 0-17.066-7.646-17.066-17.066s7.646-17.066 17.066-17.066h17.066v-68.266h-170.666v68.266h85.334c9.42 0 17.066 7.646 17.066 17.066v153.6h273.066v-82.944l-132.334-463.19h-55.398c-9.42 0-17.066-7.646-17.066-17.066v-34.134c0-9.42 7.646-17.066 17.066-17.066s17.066 7.646 17.066 17.066v17.066h546.134v-17.066c0-9.42 7.646-17.066 17.066-17.066s17.066 7.646 17.066 17.066v34.134c0 9.42-7.646 17.066-17.066 17.066h-55.398l-132.336 463.19v82.944h218.402l145.050-61.492c-18.090-91.546-52.258-144.076-71.066-167.116l-53.452 80.18v97.228c0 9.42-7.646 17.066-17.066 17.066s-17.066-7.646-17.066-17.066v-102.4c0-3.362 1.006-6.674 2.868-9.472l65.4-98.1v-233.762c0-9.42 7.646-17.066 17.066-17.066s17.066 7.646 17.066 17.066v231.578c23.126 23.278 102.4 118.562 102.4 331.622-0.002 244.122-104.108 333.688-108.546 337.374zM853.334 835.368l53.452 80.162c18.824-23.074 52.974-75.606 71.066-167.1l-124.518-52.788v139.726zM312.764 4.272l55.756 195.192 111.702-71.082-119.040-75.742c-7.954-5.052-10.292-15.616-5.24-23.57 3.26-5.102 8.79-7.902 14.422-7.902 3.14 0 6.314 0.854 9.148 2.662l132.488 84.326 163.242-103.884h-362.478zM705.11 25.742l-326.794 207.958 38.86 136.038 63.846-42.172-63.762-42.104c-7.868-5.188-10.036-15.786-4.83-23.654 3.276-4.966 8.704-7.646 14.25-7.646 3.226 0 6.486 0.904 9.386 2.816l75.934 50.142 122.232-80.708-80.554-51.268c-7.936-5.068-10.292-15.598-5.222-23.57 3.26-5.102 8.772-7.902 14.404-7.902 3.14 0 6.314 0.87 9.164 2.68l83.456 53.112 49.63-173.722zM636.518 265.802l-209.51 138.36 16.060 56.218c0.444 1.536 0.666 3.106 0.666 4.694v85.334h136.534v-85.334c0-1.588 0.222-3.158 0.666-4.694l16.060-56.218-42.598-28.142c-7.868-5.188-10.018-15.786-4.83-23.638 3.276-4.984 8.704-7.662 14.25-7.662 3.226 0 6.502 0.904 9.386 2.816l33.622 22.204 29.694-103.938zM853.334 578.788v22.818c0 9.42-7.646 17.066-17.066 17.066s-17.066-7.646-17.066-17.066v-17.066h-750.936c-18.824 0-34.134 15.308-34.134 34.134 0 18.824 15.308 34.134 34.134 34.134h768c2.356 0 4.608 0.478 6.656 1.348l140.698 59.63c3.874-28.468 6.246-59.99 6.246-95.112 0-35.124-2.372-66.646-6.246-95.112l-130.286 55.226zM119.978 635.738h-0.17c-9.42 0-16.982-7.646-16.982-17.066s7.732-17.066 17.152-17.066c9.438 0 17.066 7.646 17.066 17.066 0.002 9.42-7.628 17.066-17.066 17.066zM512.512 635.738h-0.17c-9.42 0-16.982-7.646-16.982-17.066s7.732-17.066 17.152-17.066c9.438 0 17.066 7.646 17.066 17.066s-7.628 17.066-17.066 17.066z" />
<glyph unicode="&#xe941;" glyph-name="fan" d="M767.5-34h-672.5c-35.84 0-65 29.158-65 65v673.666c0 8.286-6.716 15-15 15s-15-6.714-15-15v-673.666c0-52.382 42.618-95 95-95h672.5c8.284 0 15 6.714 15 15s-6.716 15-15 15zM929 960h-834c-52.382 0-95-42.618-95-95v-96.334c0-8.286 6.716-15 15-15s15 6.714 15 15v96.334c0 35.842 29.16 65 65 65h834c35.84 0 65-29.158 65-65v-834c0-35.842-29.16-65-65-65h-96c-8.284 0-15-6.714-15-15s6.716-15 15-15h96c52.382 0 95 42.618 95 95v834c0 52.382-42.618 95-95 95zM512 853c-223.318 0-405-181.682-405-405s181.682-405 405-405 405 181.682 405 405-181.682 405-405 405zM527 822.672c194.868-7.706 351.966-164.804 359.674-359.672h-90.068c-6.174 118.468-85.026 218.014-192.708 254.792 0.132 2.002 0.21 3.286 0.236 3.724 0.018 0.292 0.026 0.588 0.026 0.882 0 43.786-33.42 80.232-77.16 87.328v12.946zM676.288 463c-5.11 56.404-38.698 104.704-86.258 130.34 5.608 35.166 9.246 69.252 11.42 93.452 92.156-34.634 159.114-121.156 165.098-223.792h-90.26zM766.546 433c-0.508-8.706-1.454-17.296-2.818-25.748-16.008 7.312-36.836 16.494-59.708 25.748h62.526zM646.148 463h-26.708c-4.84 1.408-9.626 2.728-14.342 3.954-4.198 20.65-15.126 38.87-30.372 52.306 3.646 13.48 6.88 27.878 9.742 42.552 33.572-21.452 57.070-57.312 61.68-98.812zM605.804 433.002h9.266c9.722-2.916 19.668-6.182 29.63-9.662-5.686-30.678-21.77-57.732-44.46-77.38-10.494 8.942-20.66 18.050-30 27.068 18.6 14.48 31.698 35.702 35.564 59.974zM673.196 412.858c32.78-12.616 63.402-26.176 83.82-35.58-11.52-39.854-32.516-75.726-60.388-104.998-18.364 12.842-45.52 32.428-72.968 54.374 24.524 22.584 42.19 52.484 49.536 86.204zM784.356 363.98c25.698-16.994 33.22-52.956 16.536-81.878-16.654-28.838-51.442-40.306-78.998-26.684 28.24 30.756 49.832 67.708 62.462 108.562zM527 779.174c25.822-6.18 45.268-27.374 47.022-52.992-15.256 3.4-30.962 5.588-47.022 6.424v46.568zM527 702.548c15.434-0.9 30.502-3.18 45.088-6.716-1.932-22.292-5.312-55.634-10.594-90.424-11.044 3.478-22.592 5.8-34.494 6.88v90.26zM527 582.148c10.214-1.134 20.082-3.42 29.486-6.712-2.496-13.576-5.302-26.95-8.442-39.558-6.672 2.746-13.718 4.76-21.044 5.928v40.342zM527 511.234c23.812-5.65 42.584-24.422 48.234-48.234h-48.234v48.234zM527 433h48.234c-5.65-23.812-24.422-42.584-48.234-48.234v48.234zM542.642 358.1c9.84-9.88 20.676-19.864 31.934-29.664-14.514-7.626-30.568-12.692-47.576-14.582v40.342c5.38 0.858 10.602 2.182 15.642 3.904zM497 822.674v-12.754c-44.302-6.646-78.3-43.358-78.3-87.52 0-0.32 0.010-0.642 0.032-0.962 0.030-0.46 0.122-1.852 0.278-4.030-107.118-37.078-185.462-136.34-191.614-254.408h-90.070c7.708 194.868 164.806 351.966 359.674 359.674zM347.712 463h-90.26c5.964 102.292 72.494 188.576 164.172 223.44 2.312-24.214 6.13-58.238 11.914-93.322-47.334-25.696-80.73-73.884-85.826-130.118zM439.258 561.634c2.934-14.634 6.236-28.994 9.94-42.442-15.322-13.532-26.26-31.906-30.38-52.716-4.086-1.088-8.224-2.25-12.402-3.478h-28.564c4.598 41.388 27.98 77.166 61.406 98.636zM322.654 433c-23.89-9.764-45.646-19.494-62.152-27.146-1.488 8.904-2.514 17.958-3.050 27.146h65.202zM303.214 254.23c-12.756-6.346-27.42-7.53-41.666-3.294-15.688 4.668-28.982 15.308-37.438 29.966-8.452 14.634-11.012 31.46-7.208 47.376 3.412 14.276 11.608 26.246 23.242 34.114 12.86-40.752 34.656-77.568 63.070-108.162zM267.39 375.924c20.24 9.46 50.814 23.212 83.62 36.050 7.534-33.688 25.36-63.538 50.044-86.002-27.31-22.066-54.34-41.782-72.662-54.74-28.058 29.134-49.258 64.904-61.002 104.692zM379.428 422.612c10.558 3.758 21.104 7.274 31.39 10.388h7.378c3.902-24.49 17.198-45.876 36.064-60.366-9.296-9.064-19.418-18.226-29.868-27.222-22.844 19.538-39.104 46.538-44.964 77.2zM481.978 357.89c4.848-1.62 9.862-2.872 15.022-3.694v-40.342c-16.714 1.856-32.504 6.786-46.82 14.194 11.214 9.862 22.002 19.906 31.798 29.842zM448.766 433h48.234v-48.234c-23.812 5.65-42.584 24.422-48.234 48.234zM448.766 463c5.65 23.812 24.422 42.584 48.234 48.234v-48.234h-48.234zM475.828 535.826c-3.204 12.588-6.076 25.94-8.642 39.496 9.502 3.354 19.482 5.676 29.814 6.824v-40.342c-7.374-1.174-14.464-3.204-21.172-5.978zM462.022 605.24c-5.46 34.714-9.020 68.008-11.080 90.352 14.886 3.674 30.282 6.034 46.058 6.954v-90.26c-12.078-1.094-23.786-3.48-34.978-7.046zM448.814 725.93c1.67 26.1 21.716 47.638 48.186 53.486v-46.81c-16.468-0.858-32.566-3.128-48.186-6.676zM497 73.326c-194.868 7.708-351.966 164.806-359.674 359.674h90.068c0.718-13.788 2.434-27.314 5.052-40.52-1.7-0.838-2.786-1.38-3.166-1.57-0.264-0.132-0.524-0.272-0.778-0.42-20.628-11.908-35.11-31.526-40.778-55.238-5.596-23.412-1.9-48.042 10.404-69.348 12.304-21.328 31.79-36.856 54.866-43.722 8.47-2.52 17.054-3.768 25.54-3.768 14.924 0 29.546 3.862 42.704 11.454 0.28 0.16 0.554 0.33 0.822 0.51 0.39 0.26 1.574 1.050 3.422 2.302 46.49-40.326 106.122-65.878 171.518-69.286v-90.068zM512 215c-8.284 0-15-6.714-15-15v-6.546c-55.184 3.218-105.71 24.058-146.020 56.97 19.816 14.108 47.354 34.414 74.824 56.948 21.080-12.97 45.284-21.312 71.196-23.66v-11.046c0-8.286 6.716-15 15-15s15 6.714 15 15v11.046c26.26 2.378 50.754 10.928 72.032 24.196 27.604-22.406 55.262-42.578 75.128-56.564-40.494-33.45-91.458-54.646-147.162-57.892v6.548c0.002 8.286-6.714 15-14.998 15zM527 73.326v90.068c65.97 3.438 126.064 29.42 172.73 70.36 1.764-1.18 2.898-1.93 3.278-2.18 0.248-0.164 0.5-0.318 0.756-0.466 13.388-7.724 28.062-11.388 42.686-11.388 31.602 0.002 62.946 17.122 80.424 47.384 25.554 44.3 11.928 100.208-30.374 124.626-0.278 0.16-0.56 0.312-0.848 0.456-0.426 0.21-1.734 0.856-3.798 1.856 2.446 12.71 4.062 25.712 4.752 38.958h90.068c-7.708-194.868-164.806-351.966-359.674-359.674zM108 898c-24.814 0-45-20.188-45-45s20.186-45 45-45 45 20.188 45 45-20.186 45-45 45zM108 838c-8.272 0-15 6.728-15 15s6.728 15 15 15 15-6.728 15-15-6.728-15-15-15zM916 898c-24.814 0-45-20.188-45-45s20.186-45 45-45c24.814 0 45 20.188 45 45s-20.186 45-45 45zM916 838c-8.272 0-15 6.728-15 15s6.728 15 15 15 15-6.728 15-15-6.728-15-15-15zM108 88c-24.814 0-45-20.188-45-45s20.186-45 45-45 45 20.188 45 45-20.186 45-45 45zM108 28c-8.272 0-15 6.728-15 15s6.728 15 15 15 15-6.728 15-15-6.728-15-15-15zM916 88c-24.814 0-45-20.188-45-45s20.186-45 45-45c24.814 0 45 20.188 45 45s-20.186 45-45 45zM916 28c-8.272 0-15 6.728-15 15s6.728 15 15 15 15-6.728 15-15-6.728-15-15-15z" />
<glyph unicode="&#xe942;" glyph-name="robot" d="M591.999 805.604c-33.084 0-60-26.916-60-60 0-33.086 26.914-60.002 60-60.002 33.084 0 60 26.916 60 60.002 0 33.084-26.916 60-60 60zM591.999 725.602c-11.028 0-20 8.972-20 20.002 0 11.026 8.97 20 20 20 11.028 0 20-8.972 20-20 0-11.030-8.972-20.002-20-20.002zM431.999 805.604c-33.084 0-60-26.916-60-60 0-33.086 26.916-60.002 60-60.002s60 26.916 60 60.002c0 33.084-26.916 60-60 60zM431.999 725.602c-11.028 0-20 8.972-20 20.002 0 11.028 8.972 20 20 20s20-8.972 20-20c0-11.030-8.972-20.002-20-20.002zM855.198 548.403h-248.802v33.2h102.402c11.046 0 20 8.956 20 20v82h22c34.186 0 61.998 27.812 61.998 62s-27.812 62-61.998 62h-22v48.4c0 11.044-8.954 20-20 20h-134.8v22c0 34.186-27.814 61.998-62 61.998s-62-27.812-62-61.998v-22h-134.8c-11.046 0-20-8.956-20-20v-48.4h-22c-34.186 0-62-27.812-62-62s27.814-62 62-62h22v-82c0-11.044 8.954-20 20-20h102.402v-33.2h-248.8c-11.046 0-20-8.954-20-20v-320.401c0-11.044 8.954-20 20-20h73.2c11.046 0 20 8.956 20 20v195.128h33.2v-447.129h-0.004c0-11.044 8.954-20 20-20h148.8c11.046 0 20 8.954 20 20v232.002h56v-232.002c0-11.044 8.954-20 20-20h148.8c11.046 0 20 8.954 20 20h0.002v447.129h33.2v-195.128c0-11.044 8.954-20 20-20h73.2c11.046 0 20 8.956 20 20v320.401c0 11.046-8.954 20-20 20zM728.799 767.602h22c12.13 0 21.998-9.87 21.998-22s-9.868-22-21.998-22h-22v44zM295.197 723.602h-22c-12.13 0-22 9.87-22 22s9.87 22 22 22h22v-44zM222 228.001h-33.2v280.401h33.2v-280.401zM295.199 443.129h-33.2v65.274h33.2v-65.274zM489.999 898.002c0 12.128 9.87 21.998 22 21.998s22-9.87 22-21.998v-22h-44v22zM335.197 621.603v214.4h353.601v-214.4h-353.601zM457.601 581.603h108.796v-33.2h-108.796v33.2zM443.999 9.2v-33.2h-108.8v33.2h108.8zM335.199 49.2v138.802h108.8v-138.802h-108.8zM335.197 228.001v280.401h353.601v-280.401h-353.601zM579.999 49.2v138.802h108.8v-138.802h-108.8zM688.799 9.2v-33.2h-108.8v33.2h108.8zM761.999 443.129h-33.2v65.274h33.2v-65.274zM835.196 228.001h-33.2v280.401h33.2v-280.401zM433.913 426.403h-0.512c-11.046 0-20-8.956-20-20s8.954-20 20-20h0.512c11.046 0 20 8.956 20 20s-8.954 20-20 20zM590.595 426.409h-95.25c-11.046 0-20-8.954-20-20 0-11.044 8.954-20 20-20h95.25c11.046 0 20 8.956 20 20s-8.954 20-20 20zM528.651 350.003h-95.25c-11.046 0-20-8.956-20-20 0-11.046 8.954-20 20-20h95.25c11.046 0 20 8.954 20 20 0 11.044-8.954 20-20 20zM590.595 349.995h-0.512c-11.046 0-20-8.956-20-20s8.954-20 20-20h0.512c11.046 0 20 8.956 20 20 0 11.046-8.954 20-20 20z" />
<glyph unicode="&#xe943;" glyph-name="play" d="M409.6 217.6l307.2 230.4-307.2 230.4v-460.8zM512 960c-281.6 0-512-230.4-512-512s230.4-512 512-512 512 230.4 512 512-230.4 512-512 512zM512 38.4c-225.28 0-409.6 184.32-409.6 409.6s184.32 409.6 409.6 409.6 409.6-184.32 409.6-409.6-184.32-409.6-409.6-409.6z" />
<glyph unicode="&#xe944;" glyph-name="flash" d="M800.536 608.802c-2.798 6.008-8.824 9.864-15.462 9.864h-202.24l199.594 315.136c3.328 5.256 3.532 11.912 0.53 17.356-3.004 5.462-8.74 8.842-14.952 8.842h-273.066c-6.468 0-12.374-3.652-15.274-9.438l-256-512c-2.646-5.274-2.356-11.554 0.75-16.588 3.124-5.034 8.602-8.106 14.524-8.106h175.496l-191.232-454.178c-3.26-7.766-0.358-16.776 6.826-21.18 2.764-1.69 5.836-2.508 8.892-2.508 4.898 0 9.728 2.1 13.074 6.058l546.134 648.534c4.282 5.084 5.204 12.184 2.406 18.208z" />
<glyph unicode="&#xe945;" glyph-name="text" d="M639.778 484.108h44.21l-51.012-226.178-66.324 318.010h-106.55l-77.114-318.010-57.816 318.010h-111.394l113.092-511.88h108.838l76.294 302.708 68.256-302.708h100.336l129.628 511.88h-170.446v-91.832h0.002zM903.434 760.57l-142.868 142.862c-31.108 31.112-92.566 56.568-136.566 56.568h-480c-44 0-80-36-80-80v-864c0-44 36-80 80-80h736c44 0 80 36 80 80v608c0 44-25.458 105.458-56.566 136.57zM858.18 715.314c3.128-3.13 6.25-6.974 9.278-11.314h-163.458v163.456c4.34-3.030 8.184-6.15 11.312-9.28l142.868-142.862zM896 16c0-8.672-7.328-16-16-16h-736c-8.672 0-16 7.328-16 16v864c0 8.672 7.328 16 16 16h480c4.832 0 10.254-0.61 16-1.704v-254.296h254.296c1.094-5.746 1.704-11.166 1.704-16v-608z" />
<glyph unicode="&#xe946;" glyph-name="document-1" d="M842.013 370.519c-13.647 13.446-43.914 20.567-89.971 21.172-31.177 0.344-68.701-2.402-108.171-7.928-17.674 10.197-35.887 21.295-50.187 34.658-38.463 35.917-70.57 85.772-90.576 140.594 1.304 5.121 2.413 9.621 3.446 14.214 0 0 21.665 123.059 15.93 164.665-0.789 5.706-1.275 7.361-2.809 11.796l-1.882 4.835c-5.892 13.592-17.447 27.994-35.562 27.208l-10.915 0.344c-20.2 0-36.664-10.332-40.986-25.774-13.137-48.434 0.419-120.891 24.983-214.737l-6.288-15.285c-17.589-42.877-39.631-86.060-59.078-124.157l-2.529-4.956c-20.46-40.040-39.024-74.029-55.853-102.824l-17.376-9.187c-1.265-0.668-31.044-16.418-38.029-20.644-59.255-35.38-98.521-75.544-105.036-107.416-2.074-10.17-0.53-23.184 10.013-29.211l16.806-8.458c7.29-3.652 14.978-5.503 22.854-5.503 42.204 0 91.2 52.573 158.696 170.366 77.929 25.371 166.654 46.458 244.414 58.090 59.259-33.368 132.142-56.542 178.143-56.542 8.168 0 15.208 0.78 20.93 2.292 8.822 2.337 16.259 7.369 20.792 14.196 8.924 13.43 10.735 31.932 8.312 50.874-0.722 5.62-5.213 12.57-10.070 17.316zM211.647 145.952c7.695 21.043 38.16 62.644 83.203 99.556 2.832 2.296 9.807 8.834 16.195 14.903-47.103-75.126-78.647-105.068-99.398-114.459zM478.435 760.314c13.567 0 21.283-34.195 21.924-66.253 0.639-32.060-6.858-54.561-16.159-71.209-7.703 24.649-11.426 63.5-11.426 88.904 0 0-0.566 48.559 5.66 48.559zM398.851 322.506c9.45 16.917 19.283 34.758 29.33 53.677 24.492 46.316 39.959 82.558 51.479 112.347 22.911-41.683 51.445-77.121 84.987-105.514 4.184-3.54 8.617-7.1 13.273-10.65-68.21-13.496-127.164-29.91-179.069-49.861zM828.907 326.348c-4.155-2.598-16.055-4.099-23.71-4.099-24.705 0-55.271 11.295-98.122 29.666 16.464 1.219 31.561 1.837 45.099 1.837 24.78 0 32.12 0.108 56.35-6.073s24.536-18.733 20.383-21.331zM903.434 760.569l-142.863 142.862c-31.114 31.114-92.569 56.569-136.57 56.569h-480c-44.001 0-80.001-36-80.001-80.001v-864.001c0-43.999 36-79.999 80.001-79.999h736c43.999 0 79.999 36 79.999 79.999v608.001c0.002 44.001-25.453 105.458-56.565 136.57zM858.179 715.315c3.132-3.132 6.25-6.975 9.279-11.315h-163.457v163.455c4.341-3.030 8.185-6.15 11.315-9.279l142.863-142.862zM896.001 15.999c0-8.673-7.327-15.999-15.999-15.999h-736.002c-8.673 0-15.999 7.327-15.999 15.999v864.001c0 8.673 7.329 15.999 15.999 15.999h480c4.833 0 10.255-0.611 16.001-1.703v-254.296h254.296c1.092-5.747 1.703-11.167 1.703-15.999v-608.001z" />
<glyph unicode="&#xe947;" glyph-name="zoom" d="M409.6 192.397c87.318 0 166.698 30.958 228.614 83.349l277.829-277.829c6.35-6.35 14.288-9.526 23.020-9.526 7.938 0 16.67 3.175 23.020 9.526 12.701 12.701 12.701 33.34 0 46.040l-277.829 277.829c51.597 61.916 83.349 142.090 83.349 228.614 0 197.656-160.347 358.003-358.003 358.003-196.862 0-358.003-161.141-358.003-358.003 0-197.656 161.141-358.003 358.003-358.003zM409.6 843.312c161.935 0 292.912-131.771 292.912-292.912 0-161.935-130.977-292.912-292.912-292.912s-292.912 131.771-292.912 292.912c0 161.141 131.771 292.912 292.912 292.912zM377.054 338.456c0-18.257 14.288-32.546 32.546-32.546s32.546 14.288 32.546 32.546v179.398h179.398c18.257 0 32.546 14.288 32.546 32.546s-14.288 32.546-32.546 32.546h-179.398v179.398c0 18.257-14.288 32.546-32.546 32.546s-32.546-14.288-32.546-32.546v-179.398h-179.398c-18.257 0-32.546-14.288-32.546-32.546s14.288-32.546 32.546-32.546h179.398v-179.398z" />
<glyph unicode="&#xe948;" glyph-name="industry" d="M525.57 325.586c-3.826 8.064-13.472 11.504-21.538 7.674-13.124-6.228-26.884-11.376-40.896-15.296-5.862-1.64-10.304-6.43-11.496-12.4l-17.104-85.516c-1.688-8.444-9.164-14.574-17.776-14.574h-46.658c-8.612 0-16.086 6.128-17.776 14.574l-17.104 85.516c-1.194 5.97-5.638 10.76-11.496 12.4-19.796 5.54-38.9 13.456-56.782 23.528-5.306 2.988-11.84 2.742-16.904-0.634l-72.572-48.38c-7.164-4.776-16.784-3.822-22.876 2.266l-32.992 32.994c-6.090 6.090-7.040 15.71-2.266 22.876l48.38 72.572c3.378 5.066 3.624 11.598 0.634 16.904-10.074 17.884-17.99 36.99-23.528 56.782-1.64 5.862-6.43 10.304-12.4 11.496l-85.516 17.104c-8.444 1.688-14.574 9.164-14.574 17.776v46.658c0 8.612 6.128 16.086 14.574 17.776l85.516 17.104c5.97 1.194 10.76 5.638 12.4 11.496 5.54 19.796 13.456 38.9 23.528 56.782 2.988 5.304 2.742 11.838-0.634 16.904l-48.376 72.564c-4.776 7.166-3.824 16.784 2.266 22.876l32.992 32.992c6.090 6.090 15.712 7.040 22.876 2.266l72.572-48.38c5.064-3.378 11.6-3.622 16.904-0.634 17.882 10.072 36.986 17.988 56.782 23.528 5.862 1.64 10.304 6.43 11.496 12.4l17.104 85.516c1.688 8.444 9.164 14.574 17.776 14.574h46.658c8.612 0 16.086-6.128 17.776-14.574l17.104-85.516c1.194-5.97 5.638-10.76 11.496-12.4 19.796-5.54 38.9-13.456 56.782-23.528 5.306-2.988 11.84-2.742 16.904 0.634l72.572 48.38c7.164 4.776 16.782 3.822 22.876-2.266l32.992-32.992c6.090-6.090 7.040-15.71 2.266-22.876l-48.38-72.572c-3.378-5.066-3.624-11.598-0.634-16.904 10.072-17.882 17.988-36.986 23.528-56.782 1.64-5.862 6.43-10.304 12.4-11.496l85.516-17.104c8.444-1.688 14.574-9.164 14.574-17.776v-46.658c0-8.612-6.128-16.086-14.574-17.776l-85.516-17.104c-5.97-1.194-10.76-5.638-12.4-11.5-4.018-14.36-9.32-28.446-15.76-41.868-3.864-8.050-0.468-17.708 7.582-21.57 8.050-3.866 17.71-0.468 21.57 7.582 5.812 12.114 10.802 24.708 14.884 37.554l75.982 15.196c23.498 4.704 40.558 25.516 40.558 49.488v46.658c0 23.972-17.060 44.782-40.568 49.486l-75.98 15.196c-4.984 15.688-11.3 30.94-18.868 45.538l42.984 64.478c13.296 19.946 10.646 46.726-6.306 63.678l-32.992 32.992c-16.954 16.952-43.734 19.6-63.678 6.306l-64.478-42.984c-14.598 7.566-29.85 13.884-45.538 18.868l-15.196 75.98c-4.698 23.502-25.51 40.562-49.482 40.562h-46.658c-23.972 0-44.782-17.060-49.486-40.568l-15.196-75.98c-15.688-4.984-30.94-11.3-45.538-18.868l-64.474 42.984c-19.944 13.296-46.726 10.648-63.678-6.306l-32.992-32.992c-16.95-16.952-19.602-43.73-6.306-63.678l42.984-64.478c-7.566-14.598-13.884-29.848-18.868-45.538l-75.982-15.196c-23.506-4.7-40.566-25.512-40.566-49.484v-46.658c0-23.972 17.060-44.782 40.568-49.486l75.98-15.196c4.982-15.686 11.3-30.938 18.868-45.538l-42.984-64.478c-13.296-19.946-10.646-46.726 6.306-63.678l32.992-32.992c16.952-16.952 43.732-19.6 63.678-6.306l64.478 42.984c14.598-7.566 29.848-13.884 45.538-18.868l15.196-75.984c4.7-23.5 25.512-40.562 49.484-40.562h46.658c23.972 0 44.782 17.060 49.486 40.568l15.196 75.98c12.458 3.958 24.686 8.772 36.456 14.36 8.066 3.832 11.502 13.476 7.67 21.544zM533.478 476.728c2.36-1.212 4.88-1.786 7.364-1.786 5.872 0 11.538 3.21 14.4 8.794 13.040 25.43 19.934 54.072 19.934 82.83 0 100.214-81.53 181.746-181.746 181.746-47.676 0-92.728-18.324-126.86-51.602-6.394-6.232-6.524-16.47-0.292-22.862s16.468-6.526 22.862-0.292c28.058 27.352 65.094 42.418 104.286 42.418 82.384 0 149.41-67.024 149.41-149.41 0-23.988-5.508-46.892-16.37-68.076-4.072-7.94-0.934-17.684 7.012-21.76zM242.086 635.75c-8.446 2.906-17.642-1.584-20.548-10.028-6.534-18.996-9.848-38.9-9.848-59.154 0-100.216 81.532-181.746 181.746-181.746 38.542 0 75.366 11.912 106.494 34.454 7.232 5.238 8.85 15.348 3.614 22.58s-15.348 8.85-22.58 3.614c-25.576-18.518-55.842-28.308-87.53-28.308-82.386 0-149.41 67.026-149.41 149.41 0 16.668 2.72 33.034 8.088 48.636 2.904 8.442-1.584 17.64-10.026 20.542zM992.884 253.368l-46.754 9.35c-2.848 8.474-6.278 16.748-10.254 24.746l26.452 39.676c10.198 15.3 8.166 35.84-4.836 48.84l-21.68 21.68c-13.002 13-33.542 15.034-48.84 4.836l-39.676-26.452c-7.998 3.976-16.272 7.406-24.746 10.252l-9.35 46.754c-3.606 18.030-19.568 31.116-37.954 31.116h-30.662c-18.384 0-34.348-13.086-37.954-31.116l-9.35-46.754c-8.474-2.848-16.748-6.278-24.746-10.252l-39.676 26.452c-15.3 10.196-35.84 8.166-48.84-4.836l-21.68-21.68c-13.002-13.002-15.034-33.542-4.836-48.84l26.452-39.676c-5.468-10.996-9.898-22.512-13.21-34.354-2.406-8.6 2.616-17.52 11.214-19.928 8.6-2.406 17.52 2.614 19.928 11.214 3.52 12.584 8.552 24.724 14.952 36.086 2.988 5.306 2.742 11.84-0.634 16.904l-31.794 47.69c-1.678 2.518-1.344 5.898 0.796 8.038l21.68 21.68c2.14 2.138 5.52 2.47 8.038 0.796l47.69-31.794c5.064-3.378 11.598-3.622 16.904-0.634 11.364 6.4 23.502 11.432 36.086 14.952 5.862 1.64 10.304 6.43 11.496 12.4l11.238 56.194c0.592 2.966 3.22 5.12 6.246 5.12h30.662c3.024 0 5.652-2.154 6.246-5.12l11.238-56.198c1.194-5.97 5.638-10.76 11.496-12.4 12.584-3.52 24.724-8.552 36.086-14.952 5.304-2.988 11.84-2.742 16.904 0.634l47.69 31.794c2.518 1.678 5.898 1.346 8.038-0.796l21.68-21.68c2.138-2.14 2.472-5.52 0.796-8.038l-31.794-47.69c-3.378-5.066-3.624-11.598-0.634-16.904 6.4-11.364 11.432-23.502 14.952-36.086 1.64-5.862 6.43-10.304 12.4-11.496l56.194-11.238c2.966-0.592 5.12-3.22 5.12-6.246v-30.662c0-3.024-2.154-5.652-5.12-6.246l-56.198-11.238c-5.97-1.194-10.76-5.638-12.4-11.496-3.52-12.584-8.552-24.724-14.952-36.086-2.988-5.306-2.742-11.84 0.634-16.904l31.794-47.69c1.678-2.518 1.344-5.898-0.796-8.038l-21.68-21.68c-2.138-2.14-5.518-2.472-8.038-0.796l-47.69 31.794c-5.064 3.376-11.6 3.622-16.904 0.634-11.364-6.4-23.502-11.432-36.086-14.952-5.862-1.64-10.304-6.43-11.496-12.4l-11.238-56.194c-0.592-2.966-3.22-5.12-6.246-5.12h-30.662c-3.024 0-5.652 2.154-6.246 5.12l-11.238 56.198c-1.194 5.97-5.638 10.76-11.496 12.4-12.584 3.52-24.724 8.552-36.086 14.952-5.306 2.988-11.842 2.742-16.904-0.634l-47.69-31.794c-2.518-1.678-5.898-1.346-8.038 0.796l-21.68 21.68c-2.138 2.14-2.472 5.52-0.796 8.038l31.794 47.69c3.378 5.066 3.624 11.598 0.634 16.904-6.4 11.364-11.432 23.502-14.952 36.086-1.64 5.862-6.43 10.304-12.4 11.496l-56.194 11.238c-2.966 0.592-5.12 3.22-5.12 6.246v30.662c0 3.024 2.154 5.652 5.12 6.246l3.44 0.688c8.756 1.752 14.436 10.27 12.682 19.026-1.752 8.756-10.26 14.426-19.028 12.682l-3.44-0.688c-18.026-3.608-31.112-19.57-31.112-37.956v-30.662c0-18.384 13.086-34.348 31.116-37.954l46.754-9.35c2.848-8.474 6.278-16.748 10.252-24.746l-26.452-39.676c-10.2-15.3-8.166-35.84 4.836-48.84l21.68-21.68c13.002-13.002 33.542-15.034 48.84-4.836l39.676 26.452c7.998-3.976 16.272-7.406 24.746-10.252l9.35-46.754c3.61-18.030 19.572-31.116 37.958-31.116h30.662c18.384 0 34.348 13.086 37.954 31.116l9.35 46.754c8.474 2.848 16.748 6.278 24.746 10.254l39.676-26.452c15.3-10.198 35.84-8.166 48.84 4.836l21.68 21.68c13.002 13.002 15.034 33.542 4.836 48.84l-26.452 39.676c3.976 7.998 7.406 16.272 10.252 24.746l46.754 9.35c18.028 3.606 31.114 19.568 31.114 37.954v30.662c0.002 18.384-13.084 34.346-31.114 37.952zM759.916 258.29c32.096 0 58.206-26.11 58.206-58.206 0-8.93 7.24-16.168 16.168-16.168s16.168 7.24 16.168 16.168c0 49.926-40.618 90.544-90.544 90.544s-90.544-40.618-90.544-90.544 40.618-90.544 90.544-90.544c20.222 0 39.35 6.522 55.318 18.858 7.066 5.46 8.368 15.614 2.91 22.682-5.46 7.066-15.616 8.37-22.682 2.91-10.256-7.922-22.548-12.112-35.546-12.112-32.096 0-58.206 26.11-58.206 58.206 0.002 32.098 26.112 58.206 58.208 58.206zM491.938 566.568c0 54.316-44.192 98.506-98.506 98.506-54.316 0-98.506-44.192-98.506-98.506 0-54.316 44.19-98.506 98.506-98.506s98.506 44.192 98.506 98.506zM327.262 566.568c0 36.484 29.686 66.17 66.17 66.17s66.17-29.686 66.17-66.17c0-36.484-29.684-66.17-66.17-66.17-36.488 0-66.17 29.686-66.17 66.17z" />
<glyph unicode="&#xe949;" glyph-name="share" d="M242 628c-99.25 0-180-80.75-180-180s80.75-180 180-180c54.102 0 102.703 23.992 135.727 61.898l237.195-144.953c-8.328-20.703-12.922-43.297-12.922-66.945 0-99.711 81-182 180-182 98.922 0 180 82.219 180 182 0 99.25-80.75 180-180 180-54.102 0-102.703-23.992-135.727-61.898l-237.195 144.953c8.328 20.703 12.922 43.297 12.922 66.945s-4.594 46.242-12.922 66.945l237.195 144.953c33.023-37.906 81.625-61.898 135.727-61.898 99.25 0 180 80.75 180 180 0 99.711-81 182-180 182-98.922 0-180-82.219-180-182 0-23.648 4.594-46.242 12.922-66.945l-237.195-144.953c-33.023 37.906-81.625 61.898-135.727 61.898zM782 238c66.172 0 120-53.828 120-120 0-66.133-54.953-122-120-122s-120 55.867-120 122c0 66.172 53.828 120 120 120zM782 900c65.047 0 120-55.867 120-122 0-66.172-53.828-120-120-120s-120 53.828-120 120c0 66.133 54.953 122 120 122zM242 328c-66.172 0-120 53.828-120 120s53.828 120 120 120 120-53.828 120-120-53.828-120-120-120z" />
<glyph unicode="&#xe94a;" glyph-name="document-2" d="M1017.711 344.661l-180.951-342.465c-8.853-17.028-33.948-35.039-53.327-35.039l-725.655-0.133c-15.33 0-30.028 6.077-40.861 16.918-10.832 10.843-16.918 25.525-16.918 40.861l0.117 563.479c0 31.866 25.833 57.723 57.702 57.754l53.056 0.050v-49.223h-35.495c-6.947 0-13.62-2.757-18.536-7.673-4.911-4.916-7.673-11.584-7.673-18.536l0.052-528.218c0-14.489 11.741-26.209 26.214-26.209h36.352l171.492 346.915c9.689 19.379 27.997 35.041 47.349 35.041h419.989l0.143 139.61c27.423-2.543 49.067-25.29 49.067-53.363v-86.249h192.622c22.748-0.233 41.902-22.727 25.259-53.519zM144.334 190.857c-1.567 172.682 0 690.741 0 690.741 0 26.138 21.257 47.38 47.369 47.38h379.351c6.077 0 11.874-2.543 15.98-7.015l122.642-133.25c3.676-4.013 5.737-9.266 5.737-14.708v-345.193h-39.788v315.386c0 5.457-4.431 9.889-9.894 9.889h-93.87c-10.986 0-19.92 8.918-19.92 19.884v105.325c0 5.458-4.431 9.889-9.894 9.889h-350.32c-4.185 0-7.592-3.405-7.592-7.587v-647.307l-30.446-61.597c0.002 0.010-9.198 0.684-9.355 18.163zM591.771 793.86h59.096l-59.096 64.237v-64.237zM613.323 713.563h-366.634c-13.508 0-24.473-10.976-24.473-24.484 0-13.498 10.976-24.478 24.473-24.478h366.645c13.508 0 24.506 10.989 24.506 24.478-0.022 13.498-11.017 24.484-24.516 24.484zM637.817 546.513c0 13.498-10.984 24.463-24.494 24.463h-366.634c-13.508 0-24.473-10.986-24.473-24.463 0-13.498 10.976-24.463 24.473-24.463h366.645c13.489-0.002 24.484 10.965 24.484 24.463zM222.2 402.98c0-13.496 10.981-24.463 24.478-24.463h8.791c15.474 43.127 53.831 48.926 53.831 48.926h-62.622c-13.477 0-24.478-10.965-24.478-24.463z" />
<glyph unicode="&#xe94b;" glyph-name="feedback" d="M900.352 709.086l-127.273 127.273-236.992-238.977 127.297-127.289zM422.055 395.367c-10.305-24.742 14.539-49.555 39.266-39.219l152.352 78.813-112.875 112.875zM1015.211 823.945c11.719 11.719 11.719 30.711 0 42.43l-84.844 84.836c-11.719 11.719-30.711 11.719-42.43 0l-72.43-72.43 127.266-127.273zM90 118h30v-152c0-12.125 7.297-23.086 18.516-27.711 11.055-4.617 24.031-2.156 32.695 6.5l173.211 173.211h349.578c49.625 0 90 40.375 90 90v297.867l-94.633-94.633c-8.258-8.266-17.898-14.766-28.711-19.305l-171.766-89.063c-15.617-6.742-27.336-9.117-39.289-9.117-8.93 0-17.539 1.719-25.859 4.25h-213.742c-16.586 0-30 13.422-30 30 0 16.586 13.414 30 30 30h151.914c-5.922 19.641-3.383 40.914 4.781 60.438l92.578 179.797c2.633 6.648 9.141 16.32 17.375 24.547l95.219 95.219h-481.867c-49.625 0-90-40.375-90-90v-420c0-49.625 40.375-90 90-90z" />
<glyph unicode="&#xe94c;" glyph-name="tick" d="M302.080 545.28l-71.68-71.68 230.4-230.4 512 512-71.68 71.68-440.32-440.32-158.72 158.72zM921.6 448c0-225.28-184.32-409.6-409.6-409.6s-409.6 184.32-409.6 409.6 184.32 409.6 409.6 409.6c40.96 0 76.8-5.12 112.64-15.36l81.922 81.92c-61.442 20.48-128.002 35.84-194.562 35.84-281.6 0-512-230.4-512-512s230.4-512 512-512 512 230.4 512 512h-102.4z" />
<glyph unicode="&#xe94d;" d="M25.556 521.856l167.67 125.76 35.468-410.668z" />
<glyph unicode="&#xe94e;" d="M997.128 521.91v-0.028l-254.408-232.348 88.054 358.082z" />
<glyph unicode="&#xe94f;" d="M269.136 377.554l-23.324 270.062-167.67-125.76v-585.83l337.058 102.238 50.578 190.664z" />
<glyph unicode="&#xe950;" d="M754.34 377.554l23.326 270.062 167.668-125.76v-585.83l-337.058 102.238-50.576 190.664z" />
<glyph unicode="&#xe951;" d="M832.088 521.91v-216.602l-221.306-167.222-98.124 74.146-98.152-74.172-221.28 167.248v654.692h638.862v-312.384z" />
<glyph unicode="&#xe952;" d="M277.994 679.982h469.3v-39.44h-469.3v39.44z" />
<glyph unicode="&#xe953;" d="M277.994 593.4h469.3v-39.44h-469.3v39.44z" />
<glyph unicode="&#xe954;" d="M277.994 506.818h469.3v-39.44h-469.3v39.44z" />
<glyph unicode="&#xe955;" d="M277.994 420.234h469.3v-39.44h-469.3v39.44z" />
<glyph unicode="&#xe956;" d="M463.844 849.734c-3.852-3.852-5.776-8.898-5.776-13.946 0-5.046 1.924-10.094 5.776-13.946l20.914-20.914-20.914-20.914c-3.852-3.852-5.776-8.9-5.776-13.946s1.924-10.094 5.776-13.946c7.702-7.702 20.188-7.702 27.888 0l20.914 20.914 20.914-20.914c7.702-7.702 20.188-7.702 27.888 0 7.698 7.702 7.702 20.184 0 27.888l-20.914 20.914 20.914 20.914c7.702 7.704 7.702 20.188 0 27.888s-20.188 7.702-27.888 0l-20.914-20.914-20.914 20.914c-7.702 7.706-20.188 7.706-27.888 0.008z" />
<glyph unicode="&#xe957;" d="M424.55 800.928c0-10.891-8.829-19.72-19.72-19.72s-19.72 8.829-19.72 19.72c0 10.891 8.829 19.72 19.72 19.72s19.72-8.829 19.72-19.72z" />
<glyph unicode="&#xe958;" d="M640.152 800.928c0-10.891-8.829-19.72-19.72-19.72s-19.72 8.829-19.72 19.72c0 10.891 8.829 19.72 19.72 19.72s19.72-8.829 19.72-19.72z" />
<glyph unicode="&#xe959;" d="M193.226 960h48.616v-683.614h-48.616v683.614z" />
<glyph unicode="&#xe95a;" d="M610.782 267.080l387.662-292.956-971.572 0.026 485.786 367.074z" />
<glyph unicode="&#xe95b;" d="M997.128 521.882v-585.882l-383.244 124.786-4.416 168.168 221.306 167.222z" />
<glyph unicode="&#xe95c;" d="M191.912 396.176l221.28-167.248-50.578-190.664-337.058-102.238v585.83z" />
<glyph unicode="&#xe95d;" d="M609.468 228.954l387.66-292.954-971.572 0.026 485.786 367.074z" />
<glyph unicode="&#xe95e;" glyph-name="logo" d="M698.181 690.036v0c0 0 0 9.309 0 23.273v232.727c0 13.964 0 13.964 0 13.964h-279.273v-232.727c0-13.964-9.309-23.273-23.273-23.273s-23.273 9.309-23.273 23.273v232.727h-46.546v-232.727c0-13.964-9.309-23.273-23.273-23.273s-23.273 9.309-23.273 23.273v232.727h-46.546v-232.727c0-13.964-9.309-23.273-23.273-23.273s-23.273 9.309-23.273 23.273v228.073c-93.088-9.309-186.179-65.164-186.179-158.254v-619.053c0-121.017 139.636-242.036 256-242.036h619.053c102.401 0 148.945 88.437 148.945 242.036v511.998h-325.817zM386.326 541.092c37.237 51.2 93.092 79.128 153.599 79.128s116.363-27.927 153.599-79.128c23.273-32.582 37.237-69.819 37.237-107.055 0-102.401-83.782-186.181-186.181-186.181s-186.181 83.782-186.181 186.181c-4.655 37.237 4.655 74.473 27.927 107.055zM875.053-17.454h-619.053c-93.092 0-209.454 97.746-209.454 195.49v223.418h251.345c4.655 0 4.655 0 9.309 0 13.964-116.364 111.71-209.454 232.727-209.454s218.763 88.437 232.727 204.8h204.8v-223.418c0-55.853 9.309-190.836-102.401-190.836zM870.399 960h-125.672v-228.073l279.273 4.655v60.51c0 121.017-32.582 162.908-153.601 162.908zM539.927 317.674c60.51 0 111.708 51.2 111.708 111.71 0 23.273-9.309 46.546-23.273 65.164-18.618 27.927-55.855 46.546-88.437 46.546-37.237 0-69.819-18.618-88.437-46.546-13.964-18.618-18.618-41.891-18.618-65.164-4.653-60.51 46.548-111.71 107.057-111.71z" />
<glyph unicode="&#xe95f;" glyph-name="clouds" d="M880.001 656.043c-13.118 111.033-107.556 197.159-222.118 197.159-74.682 0-140.785-36.621-181.41-92.862 4.744 0.182 9.504 0.286 14.289 0.286 167.709 0 311.616-113.018 354.432-270.435 47.946-10.587 91.971-34.6 127.532-70.156 3.158-3.158 6.221-6.383 9.193-9.671 25.994 26.050 42.081 61.982 42.081 101.687 0 79.525-64.474 143.992-143.999 143.992zM788.5 428.825c-17.586 148.836-144.175 264.284-297.739 264.284s-280.153-115.449-297.739-264.284c-106.597 0-193.023-86.414-193.023-193.014s86.414-193.014 193.014-193.014h595.498c106.6 0 193.014 86.414 193.014 193.014s-86.426 193.014-193.025 193.014z" />
<glyph unicode="&#xe960;" glyph-name="map" d="M983.844 808.617l-302.695 80.734c-0.195 0.055-0.406 0.078-0.609 0.125-0.383 0.094-0.766 0.172-1.148 0.242-0.375 0.063-0.742 0.109-1.117 0.156-0.383 0.039-0.766 0.078-1.148 0.094-0.375 0.023-0.758 0.031-1.133 0.031-0.383 0-0.758-0.008-1.141-0.031-0.383-0.016-0.766-0.055-1.148-0.102-0.375-0.039-0.742-0.086-1.109-0.156-0.391-0.063-0.773-0.148-1.156-0.234-0.203-0.047-0.406-0.070-0.609-0.125l-322.82-86.094-279.969 74.672c-16.375 4.367-33.469 0.945-46.898-9.375-13.437-10.32-21.141-25.953-21.141-42.891v-651.172c0-24.469 16.516-45.961 40.156-52.266l302.695-80.734c0.031-0.008 0.070-0.016 0.109-0.023 0.742-0.195 1.484-0.336 2.242-0.445 0.164-0.023 0.328-0.039 0.5-0.063 0.766-0.086 1.531-0.148 2.305-0.148h0.008c0.773 0 1.539 0.063 2.305 0.148 0.164 0.023 0.328 0.039 0.492 0.063 0.758 0.109 1.508 0.25 2.242 0.445 0.039 0.008 0.078 0.008 0.117 0.023l218.516 58.281c62.211-83.094 87.055-95.344 104.297-95.344 17.352 0 42.281 12.25 104.422 95.305l175.555-46.82c4.664-1.242 9.391-1.859 14.078-1.859 11.742 0 23.211 3.852 32.813 11.234 13.438 10.32 21.141 25.953 21.141 42.891v651.172c0.008 24.469-16.508 45.961-40.148 52.266zM40.070 174.492v651.172c0 6.008 3.438 9.547 5.477 11.117 1.586 1.219 4.516 2.93 8.445 2.93 1.156 0 2.398-0.148 3.719-0.5l270.266-72.086v-680.195l-277.492 74.008c-6.133 1.641-10.414 7.211-10.414 13.555zM368.047 767.125l287.906 76.789v-264.117c-52.297-4.992-103.281-29.273-142.359-68.359-44.055-44.055-69.328-103.242-69.328-162.383 0-37.656 16.766-79.109 30.828-107.258l0.922-1.648c0.344-0.539 32.578-52.125 70.43-105.641l-178.398-47.578zM676.016 44.875c-5.805 2.711-29.836 18.516-94.328 109.211-35.656 50.141-66.883 99.641-71.172 106.477-16.883 34-26.18 65.398-26.18 88.492 0 102.094 89.563 191.648 191.656 191.648s191.648-89.555 191.648-191.648c0-23.094-9.297-54.492-26.188-88.5-4.25-6.797-35.359-56.242-71-106.422-64.531-90.859-88.617-106.578-94.438-109.258zM983.93 105.187c0-6.016-3.438-9.555-5.484-11.125s-6.352-3.977-12.156-2.43l-160.656 42.852c37.82 53.531 70 105.141 70.336 105.68l0.914 1.633c14.063 28.141 30.828 69.594 30.828 107.25 0 59.141-25.273 118.328-69.328 162.391-39.086 39.078-90.063 63.359-142.359 68.352v264.125l277.492-74.008c6.133-1.641 10.414-7.211 10.414-13.555zM675.984 453.758c-49.953 0-90.594-40.641-90.594-90.594 0-49.961 40.641-90.602 90.594-90.602 49.961 0 90.602 40.641 90.602 90.602 0 49.953-40.641 90.594-90.602 90.594zM675.984 312.641c-27.859 0-50.523 22.664-50.523 50.523s22.664 50.523 50.523 50.523c27.867 0 50.531-22.664 50.531-50.523s-22.664-50.523-50.531-50.523zM417.523 556.164c11.070 0 20.039 8.977 20.039 20.039v145.586c0 11.063-8.969 20.039-20.039 20.039-11.063 0-20.031-8.977-20.031-20.039v-145.586c0-11.063 8.969-20.039 20.031-20.039zM406.922 527.086l-0.539-0.344c-9.297-6.008-11.961-18.406-5.961-27.703 3.836-5.93 10.273-9.164 16.852-9.164 3.727 0 7.492 1.039 10.852 3.211l0.539 0.344c9.297 6.008 11.961 18.406 5.961 27.703-6.008 9.297-18.414 11.961-27.703 5.953zM253.086 596.422l-156.219 46.82c-10.602 3.18-21.766-2.844-24.945-13.438-3.172-10.602 2.844-21.766 13.438-24.945l156.219-46.82c1.922-0.578 3.859-0.852 5.758-0.852 8.625 0 16.586 5.609 19.187 14.289 3.172 10.602-2.844 21.766-13.437 24.945zM253.086 427.68l-156.219 46.82c-10.602 3.18-21.766-2.836-24.945-13.438-3.172-10.602 2.844-21.766 13.438-24.945l156.219-46.82c1.922-0.57 3.859-0.844 5.758-0.844 8.625 0 16.586 5.609 19.187 14.289 3.172 10.602-2.844 21.766-13.437 24.938zM85.758 519.242l62.93-18.859c1.922-0.578 3.852-0.852 5.758-0.852 8.625 0 16.586 5.609 19.188 14.289 3.172 10.602-2.844 21.766-13.438 24.945l-62.93 18.859c-10.602 3.18-21.766-2.836-24.945-13.438s2.844-21.766 13.438-24.945z" />
<glyph unicode="&#xe961;" glyph-name="time-and-date" d="M809.717 823.46c-74.581 86.748-183.317 136.617-297.717 136.54-216.649 0.145-392.395-175.366-392.54-392.015-0.077-114.402 49.792-223.136 136.54-297.717v-317.201c0-9.425 7.642-17.067 17.067-17.067h477.867c9.425 0 17.067 7.642 17.067 17.067v317.201c164.279 141.239 182.957 388.913 41.717 553.193zM733.867-29.867h-443.733v273.749c133.626-91.932 310.108-91.932 443.733 0v-273.749zM512 209.067c-197.939 0-358.4 160.461-358.4 358.4s160.461 358.4 358.4 358.4 358.4-160.461 358.4-358.4c-0.215-197.85-160.55-358.185-358.4-358.4zM512 874.667c-169.662 0-307.2-137.538-307.2-307.2s137.538-307.2 307.2-307.2 307.2 137.538 307.2 307.2c-0.198 169.581-137.619 307.002-307.2 307.2zM529.067 295.27v50.33c0 9.425-7.642 17.067-17.067 17.067s-17.067-7.642-17.067-17.067v-50.33c-137.118 8.747-246.383 118.012-255.13 255.13h50.33c9.425 0 17.067 7.642 17.067 17.067s-7.642 17.067-17.067 17.067h-50.33c9.329 150.428 138.835 264.811 289.263 255.482s264.811-138.835 255.484-289.263c-8.523-137.414-118.069-246.961-255.484-255.482zM682.667 618.667h-119.467v153.6c0 9.425-7.642 17.067-17.067 17.067h-68.267c-9.425 0-17.067-7.642-17.067-17.067v-160.119c-24.732-28.22-21.905-71.145 6.315-95.878 25.76-22.577 64.301-22.447 89.907 0.303 0.478 0 0.887-0.273 1.382-0.273h124.262c9.425 0 17.067 7.642 17.067 17.067v68.235c0 9.425-7.642 17.067-17.067 17.067zM494.933 755.2h34.133v-121.89c-11.149 3.232-22.985 3.232-34.133 0v121.89zM512 533.333c-18.852 0-34.133 15.281-34.133 34.133s15.281 34.133 34.133 34.133 34.133-15.281 34.133-34.133-15.281-34.133-34.133-34.133zM665.6 550.4h-87.757c3.232 11.149 3.232 22.985 0 34.133h87.757v-34.133zM682.667 106.667h-341.333c-9.425 0-17.067-7.642-17.067-17.067s7.642-17.067 17.067-17.067h341.333c9.425 0 17.067 7.642 17.067 17.067s-7.642 17.067-17.067 17.067zM216.866 209.067c0 9.425-7.642 17.067-17.067 12.066-6.665 6.662-17.468 6.662-24.132 0-53.707-53.828-53.707-140.971 0-194.799 6.78-6.547 17.583-6.362 24.132 0.418 6.387 6.613 6.387 17.099 0 23.714-40.401 40.491-40.401 106.044 0 146.534 9.425 0 17.067 2.641 17.067 12.066zM97.818 50.048c-0.137 0.143-0.277 0.282-0.418 0.418-40.401 40.491-40.401 106.044 0 146.534 6.662 6.665 6.662 17.468 0 24.132-6.665 6.662-17.468 6.662-24.132 0-53.707-53.828-53.707-140.971 0-194.799 6.549-6.78 17.353-6.967 24.132-0.418s6.967 17.353 0.418 24.132zM848.333 221.133c-6.78 6.549-17.583 6.362-24.132-0.418-6.389-6.613-6.389-17.101 0-23.714 40.401-40.491 40.401-106.044 0-146.534-6.662-6.665-6.662-17.468 0-24.132 6.665-6.662 17.468-6.662 24.132 0 53.707 53.828 53.707 140.971 0 194.799zM950.733 221.133c-6.78 6.549-17.583 6.362-24.132-0.418-6.389-6.613-6.389-17.101 0-23.714 40.401-40.491 40.401-106.044 0-146.534-6.662-6.665-6.662-17.468 0-24.132 6.665-6.662 17.468-6.662 24.132 0 53.707 53.828 53.707 140.971 0 194.799zM682.667 38.4h-34.133c-9.425 0-17.067-7.642-17.067-17.067s7.642-17.067 17.067-17.067h34.133c9.425 0 17.067 7.642 17.067 17.067s-7.642 17.067-17.067 17.067zM580.267 38.4h-34.133c-9.425 0-17.067-7.642-17.067-17.067s7.642-17.067 17.067-17.067h34.133c9.425 0 17.067 7.642 17.067 17.067s-7.642 17.067-17.067 17.067zM477.867 38.4h-136.533c-9.425 0-17.067-7.642-17.067-17.067s7.642-17.067 17.067-17.067h136.533c9.425 0 17.067 7.642 17.067 17.067s-7.642 17.067-17.067 17.067zM375.467 174.933h-34.133c-9.425 0-17.067-7.642-17.067-17.067s7.642-17.067 17.067-17.067h34.133c9.425 0 17.067 7.642 17.067 17.067s-7.642 17.067-17.067 17.067z" />
<glyph unicode="&#xe962;" glyph-name="interview" d="M17.067 311.467h17.067v-358.4c0-9.442 7.65-17.067 17.067-17.067h921.6c9.417 0 17.067 7.625 17.067 17.067v358.4h17.067c9.417 0 17.067 7.625 17.067 17.067v68.267c0 9.442-7.65 17.067-17.067 17.067h-34.575c10.833 14.3 17.508 31.917 17.508 51.2v102.4c0 47.050-38.283 85.333-85.333 85.333h-9.217c16.283 18.142 26.283 42.017 26.283 68.267 0 56.475-45.925 102.4-102.4 102.4s-102.4-45.925-102.4-102.4c0-26.25 10-50.125 26.283-68.267h-9.217c-41.2 0-75.675-29.375-83.608-68.267h-155.325c-6.983 0-13.242-4.25-15.858-10.733l-63.958-159.933h-107.917v102.4h51.2c4.525 0 8.875 1.792 12.067 5l153.6 153.6c6.675 6.675 6.675 17.458 0 24.133l-51.2 51.2c-6.675 6.675-17.458 6.675-24.133 0l-114.467-114.467h-70.417c16.283 18.142 26.283 42.017 26.283 68.267 0 56.475-45.925 102.4-102.4 102.4s-102.4-45.925-102.4-102.4c0-26.25 10-50.125 26.283-68.267h-26.283c-47.050 0-85.333-38.283-85.333-85.333v-85.333c0-19.283 6.675-36.9 17.508-51.2h-0.442c-9.417 0-17.067-7.625-17.067-17.067v-68.267c0-9.442 7.65-17.067 17.067-17.067zM955.733-29.867h-887.467v341.333h887.467zM989.867 345.6h-955.733v34.133h955.733zM819.2 789.333c37.65 0 68.267-30.617 68.267-68.267s-30.617-68.267-68.267-68.267c-12.492 0-24.050 3.617-34.133 9.492 20.308 11.842 34.133 33.617 34.133 58.775h-34.133c0-15.75-10.783-28.925-25.342-32.833-5.433 9.775-8.792 20.867-8.792 32.833 0 37.65 30.617 68.267 68.267 68.267zM733.867 618.667h170.667c28.225 0 51.2-22.975 51.2-51.2v-102.4c0-28.225-22.975-51.2-51.2-51.2h-102.4v51.2h85.333c9.417 0 17.067 7.625 17.067 17.067v68.267h-34.133v-51.2h-85.333c-9.417 0-17.067-7.625-17.067-17.067v-68.267h-60.125l58.917 147.267c2.092 5.258 1.45 11.217-1.725 15.908s-8.467 7.492-14.133 7.492h-65.125c7.067 19.817 25.842 34.133 48.058 34.133zM506.483 550.4h219.242l-54.608-136.533h-219.242zM119.467 704c0 37.65 30.617 68.267 68.267 68.267s68.267-30.617 68.267-68.267-30.617-68.267-68.267-68.267-68.267 30.617-68.267 68.267zM34.133 465.067v85.333c0 28.225 22.975 51.2 51.2 51.2h256c4.525 0 8.875 1.792 12.067 5l107.4 107.4 27.067-27.067-136.533-136.533h-61.2c-9.417 0-17.067-7.625-17.067-17.067v-119.467h-34.133v68.267c0 9.442-7.65 17.067-17.067 17.067h-102.4v34.133h-34.133v-51.2c0-9.442 7.65-17.067 17.067-17.067h102.4v-51.2h-119.467c-28.225 0-51.2 22.975-51.2 51.2zM102.4 277.333h34.133v-34.133h-34.133zM170.667 277.333h34.133v-34.133h-34.133zM238.933 277.333h34.133v-34.133h-34.133zM102.4 209.067h34.133v-34.133h-34.133zM170.667 209.067h34.133v-34.133h-34.133zM102.4 140.8h34.133v-34.133h-34.133zM351.867 722.367c2.117-0.892 4.333-1.3 6.533-1.3 4.433 0 8.808 1.742 12.067 5l63.267 63.267h146.533c9.417 0 17.067 7.625 17.067 17.067v136.533c0 9.442-7.65 17.067-17.067 17.067h-273.067c-9.417 0-17.067-7.625-17.067-17.067v-136.533c0-9.442 7.65-17.067 17.067-17.067h34.133v-51.2c0-6.892 4.167-13.142 10.533-15.767zM324.267 823.467v102.4h238.933v-102.4h-136.533c-4.525 0-8.875-1.792-12.067-5l-39.133-39.133v27.067c0 9.442-7.65 17.067-17.067 17.067zM358.4 891.733h34.133v-34.133h-34.133zM426.667 891.733h34.133v-34.133h-34.133zM494.933 891.733h34.133v-34.133h-34.133zM580.267 499.2h34.133v-34.133h-34.133z" />
<glyph unicode="&#xe963;" glyph-name="businessman" d="M938.667 960h-256c-37.7 0-68.267-30.567-68.267-68.267v-273.067c0-37.7 30.567-68.267 68.267-68.267h85.333v-68.267c0-6.9 4.158-13.125 10.533-15.767s13.717-1.175 18.6 3.7l80.333 80.333h61.2c37.7 0 68.267 30.567 68.267 68.267v273.067c0 37.7-30.567 68.267-68.267 68.267zM972.8 618.667c0-18.85-15.283-34.133-34.133-34.133h-68.267c-4.525 0-8.867-1.8-12.067-5l-56.2-56.2v44.133c0 9.425-7.642 17.067-17.067 17.067h-102.4c-18.85 0-34.133 15.283-34.133 34.133v273.067c0 18.85 15.283 34.133 34.133 34.133h256c18.85 0 34.133-15.283 34.133-34.133zM682.667 874.667h153.6v-34.133h-153.6zM870.4 874.667h68.267v-34.133h-68.267zM682.667 806.4h256v-34.133h-256zM682.667 738.133h68.267v-34.133h-68.267zM785.067 738.133h153.6v-34.133h-153.6zM682.667 669.867h153.6v-34.133h-153.6zM136.533 430.933c-65.95-0.075-119.392-53.517-119.467-119.467v-375.467h34.133v375.467c0.058 47.108 38.225 85.275 85.333 85.333h40.65l-38.858-77.708c-2.233-4.433-2.433-9.617-0.533-14.208s5.7-8.125 10.417-9.683l35-11.658-11.658-35.017c-1.933-5.792-0.633-12.175 3.417-16.742l136.533-153.6c0.258-0.292 0.667-0.408 0.942-0.683 1.125-1.092 2.4-2.033 3.783-2.783 0.55-0.333 1.125-0.625 1.708-0.883 4.050-1.825 8.683-1.825 12.733 0 0.583 0.258 1.158 0.55 1.708 0.883 1.383 0.75 2.658 1.692 3.783 2.783 0.275 0.275 0.683 0.392 0.942 0.683l136.533 153.6c4.050 4.567 5.35 10.95 3.417 16.742l-11.658 35.017 35 11.658c4.717 1.558 8.525 5.092 10.417 9.683 1.9 4.592 1.708 9.775-0.533 14.208l-38.925 77.708h40.65c47.108-0.058 85.275-38.225 85.333-85.333h34.133c-0.075 65.95-53.517 119.392-119.467 119.467h-85.333v85.658c42.925 32.125 68.217 82.592 68.267 136.208 36.783-0.017 66.933 29.183 68.1 65.942 1.175 36.767-27.058 67.817-63.767 70.15l7.733 61.883c3.825 29.775-6.425 59.642-27.717 80.808-18.283 18.15-42.983 28.358-68.742 28.417h-274.008c-9.425 0-17.067-7.642-17.067-17.067v-34.133c0.075-26.967 12.933-52.292 34.658-68.267h-0.525v-51.2c-37.7 0-68.267-30.567-68.267-68.267s30.567-68.267 68.267-68.267c0.050-53.617 25.342-104.083 68.267-136.208v-85.658zM494.933 738.133v16.008l0.133 1.058c18.858-0.042 34.108-15.35 34.067-34.2-0.033-18.85-15.35-34.108-34.2-34.067zM153.6 686.933c-18.85 0-34.133 15.283-34.133 34.133s15.283 34.133 34.133 34.133zM307.2 221.508l-46.083 175.292h46.083zM256 430.933v65.55c43.5-19.133 93.033-19.133 136.533 0v-65.55zM341.333 396.8h46.083l-46.083-175.292zM433.183 396.8l37.683-75.367-32.525-10.833c-8.942-2.992-13.767-12.65-10.792-21.592l13.933-41.85-82.558-92.858 63.833 242.5zM153.6 908.8v17.067h256.942c16.717-0.050 32.75-6.692 44.608-18.483 13.808-13.742 20.45-33.108 17.992-52.425l-4.017-31.983-9.533 23.892c-2.592 6.483-8.875 10.733-15.858 10.733h-238.933c-28.275 0-51.2 22.925-51.2 51.2zM187.733 652.8v172.375c5.617-1.142 11.333-1.717 17.067-1.708h227.383l28.617-71.558v-99.108c0-75.408-61.125-136.533-136.533-136.533s-136.533 61.125-136.533 136.533zM225.775 396.8l63.833-242.5-82.558 92.858 13.933 41.85c2.975 8.942-1.85 18.6-10.792 21.592l-32.525 10.833 37.683 75.367zM426.667 729.6c0-14.142-11.458-25.6-25.6-25.6s-25.6 11.458-25.6 25.6 11.458 25.6 25.6 25.6 25.6-11.458 25.6-25.6zM273.067 729.6c0-14.142-11.458-25.6-25.6-25.6s-25.6 11.458-25.6 25.6 11.458 25.6 25.6 25.6 25.6-11.458 25.6-25.6zM320.442 601.6c25.192 0.008 49.333 10.058 67.092 27.925l-24.133 24.125c-16.308-16.417-40.533-22.125-62.467-14.725l-5.408 1.792-10.783-32.425 5.392-1.808c9.775-3.25 20.008-4.892 30.308-4.883zM307.2 38.4h34.133v-34.133h-34.133zM989.867 277.333h-136.533v34.133c0 18.85-15.283 34.133-34.133 34.133h-102.4c-18.85 0-34.133-15.283-34.133-34.133v-34.133h-136.533c-9.425 0-17.067-7.642-17.067-17.067v-307.2c0-9.425 7.642-17.067 17.067-17.067h443.733c9.425 0 17.067 7.642 17.067 17.067v307.2c0 9.425-7.642 17.067-17.067 17.067zM716.8 311.467h102.4v-34.133h-102.4zM972.8-29.867h-409.6v130.492l199.783-61.442c3.267-1 6.767-1 10.033 0l199.783 61.442zM972.8 136.342l-204.8-63.025-204.8 63.025v106.858h409.6zM750.933 140.8h34.133v-34.133h-34.133z" />
<glyph unicode="&#xe964;" glyph-name="faq" d="M778.667 584h106.667v-71.111h-106.667zM190.222 352.889h90.667v337.778c0 29.451 23.882 53.333 53.333 53.333h373.333v53.333c0 9.819-7.958 17.778-17.778 17.778h-640c-9.819 0-17.778-7.958-17.778-17.778v-595.306l145.653 145.653c3.333 3.333 7.854 5.208 12.569 5.208zM209.778 744h53.333v-35.556h-53.333zM103.111 744h71.111v-35.556h-71.111zM103.111 655.111h160v-35.556h-160zM103.111 566.222h160v-35.556h-160zM138.667 441.778h-35.556v35.556h35.556zM174.222 477.333h88.889v-35.556h-88.889zM524.569 454.347l40.764-40.764v152.639c0 9.819-7.958 17.778-17.778 17.778h-88.889c-9.819 0-17.778-7.958-17.778-17.778v-160c0-9.819 7.958-17.778 17.778-17.778h81.528l-40.764 40.764zM474.667 246.222h499.556c9.819 0 17.778 7.958 17.778 17.778v426.667c0 9.819-7.958 17.778-17.778 17.778h-640c-9.819 0-17.778-7.958-17.778-17.778v-595.306l145.653 145.653c3.333 3.333 7.854 5.208 12.569 5.208zM743.111 601.778c0 9.819 7.958 17.778 17.778 17.778h142.222c9.819 0 17.778-7.958 17.778-17.778v-248.889h-35.556v124.444h-106.667v-124.444h-35.556zM636.444 495.111h71.111v-35.556h-71.111zM405.333 406.222v160c0 29.451 23.882 53.333 53.333 53.333h88.889c29.451 0 53.333-23.882 53.333-53.333v-160c-0.035-7.917-1.861-15.729-5.333-22.847l29.604-29.597-25.16-25.132-29.597 29.576c-7.118-3.472-14.931-5.299-22.847-5.333h-88.889c-29.451 0-53.333 23.882-53.333 53.333z" />
<glyph unicode="&#xe965;" glyph-name="press" d="M895.854 803.014v-783.822c0-23.864 19.414-43.28 43.28-43.28h41.588c23.864 0 43.28 19.414 43.28 43.28v783.822h-128.148zM121.196 306.201h111.982v-162.078h-111.982v162.078zM121.196 751.88h219.932v-273.493h-219.932v273.493zM835.082 19.188v900.904h-835.082v-900.904c0-23.864 19.414-43.28 43.28-43.28h801.268c-6.060 13.19-9.466 27.84-9.466 43.28zM60.426 812.652h341.467v-395.037h-341.467v395.037zM293.959 83.35h-233.532v283.617h233.532v-283.617zM528.913 83.35h-184.304v60.772h184.304v-60.772zM528.913 194.773h-184.304v60.772h184.304v-60.772zM528.913 306.195h-184.304v60.772h184.304v-60.772zM753.733 83.35h-184.304v60.772h184.304v-60.772zM753.733 194.773h-184.304v60.772h184.304v-60.772zM753.733 306.195h-184.304v60.772h184.304v-60.772zM753.733 417.615h-301.193v60.772h301.195v-60.772zM753.733 529.035h-301.193v60.772h301.195v-60.772zM753.733 640.459h-301.193v60.772h301.195v-60.772zM753.733 751.88h-301.193v60.772h301.195v-60.772z" />
<glyph unicode="&#xe966;" glyph-name="partner" d="M332.986 227.65c6.896-18.174 10.704-37.856 10.704-58.42 0-14.76-1.926-29.236-5.69-43.164 3.804-3.134 7.474-6.41 11.028-9.788l131.712 131.712v127.418l-147.754-147.758zM309.634 417.76l-88.86-88.86c31.17-8.256 58.762-25.4 79.862-48.572l137.432 137.432h-128.434zM910.582 561.594l-300.538 0.002v84.814c0 63.078 28.49 121.614 75.65 160.634-1.746 6.418-3.080 12.954-4.036 19.58-44.298 19.968-91.998 32.146-140.79 35.722v-384.464h384.354c-2.012 28.566-6.902 56.516-14.64 83.712zM540.866 417.76v-384.46c29.502 2.164 58.62 7.482 86.834 15.766 13.042 29.606 32.864 55.938 57.992 76.73-3.81 14.010-5.76 28.574-5.76 43.432 0 91.076 74.094 165.172 165.172 165.172 21.866 0 42.73-4.308 61.848-12.060 9.75 30.902 15.868 62.978 18.224 95.418h-384.31zM96.144 417.764c2.378-32.724 8.594-65.074 18.49-96.222 6.75 2.842 13.736 5.222 20.906 7.156l89.066 89.066h-128.462zM342.126 827.716c-0.95-6.906-2.32-13.716-4.126-20.4 47.348-39.014 75.956-97.652 75.956-160.904v-84.814h-303.214c-7.738-27.196-12.628-55.146-14.64-83.71h384.638v384.484c-47.972-3.484-94.918-15.302-138.614-34.656zM386.42 68.642c3.796-6.63 7.228-13.47 10.28-20.494 27.338-7.8 55.51-12.798 84.038-14.87v129.682l-94.318-94.318zM480.738 162.962v-0.002l0.002 0.002zM932.368 785.868c13.416 18.072 21.366 40.428 21.366 64.612 0 59.896-48.73 108.628-108.628 108.628s-108.628-48.732-108.628-108.628c0-24.24 7.986-46.65 21.458-64.742-53.708-23.464-91.348-77.068-91.348-139.324v-28.27h357.412v28.27c0 62.366-37.774 116.054-91.632 139.454zM265.78 785.866c13.416 18.072 21.366 40.428 21.366 64.612 0 59.896-48.73 108.628-108.628 108.628s-108.628-48.732-108.628-108.628c0-24.24 7.986-46.65 21.458-64.742-53.708-23.464-91.348-77.068-91.348-139.322v-28.27h357.412v28.268c0 62.366-37.772 116.054-91.632 139.454zM932.368 104.618c13.416 18.072 21.366 40.428 21.366 64.612 0 59.898-48.73 108.63-108.628 108.63s-108.628-48.732-108.628-108.628c0-24.24 7.986-46.65 21.458-64.742-53.706-23.464-91.348-77.070-91.348-139.326v-28.27h357.412v28.27c0 62.366-37.774 116.054-91.632 139.454zM265.78 104.618c13.416 18.072 21.366 40.428 21.366 64.612 0 59.896-48.73 108.628-108.628 108.628s-108.628-48.732-108.628-108.628c0-24.24 7.986-46.65 21.458-64.742-53.708-23.464-91.348-77.070-91.348-139.326v-28.27h357.412v28.27c0 62.368-37.772 116.058-91.632 139.456z" />
</font>
</defs>
</svg>
